ISO-10303-21;
HEADER;
/* Generated by software containing ST-Developer
 * from STEP Tools, Inc. (www.steptools.com) 
 */

FILE_DESCRIPTION(
/* description */ (''),
/* implementation_level */ '2;1');

FILE_NAME(
/* name */ 'ConnectionPiece.step',
/* time_stamp */ '2026-08-10T17:11:21+08:00',
/* author */ (''),
/* organization */ (''),
/* preprocessor_version */ 'ST-DEVELOPER v20.1',
/* originating_system */ 'Autodesk Translation Framework v15.8.0.0',
/* authorisation */ '');

FILE_SCHEMA (('AUTOMOTIVE_DESIGN { 1 0 10303 214 3 1 1 }'));
ENDSEC;

DATA;
#10=MECHANICAL_DESIGN_GEOMETRIC_PRESENTATION_REPRESENTATION('',(#17),#1249);
#11=ITEM_DEFINED_TRANSFORMATION($,$,#685,#789);
#12=(
REPRESENTATION_RELATIONSHIP($,$,#1260,#1259)
REPRESENTATION_RELATIONSHIP_WITH_TRANSFORMATION(#11)
SHAPE_REPRESENTATION_RELATIONSHIP()
);
#13=CONTEXT_DEPENDENT_SHAPE_REPRESENTATION(#12,#1258);
#14=NEXT_ASSEMBLY_USAGE_OCCURRENCE('Component2:1','Component2:1',
'Component2:1',#1262,#1263,'Component2:1');
#15=SHAPE_REPRESENTATION_RELATIONSHIP('SRR','None',#1260,#16);
#16=ADVANCED_BREP_SHAPE_REPRESENTATION('',(#18),#1248);
#17=STYLED_ITEM('',(#1273),#18);
#18=MANIFOLD_SOLID_BREP('Body1',#671);
#19=FACE_BOUND('',#127,.T.);
#20=CYLINDRICAL_SURFACE('',#695,5.);
#21=CYLINDRICAL_SURFACE('',#778,6.49999999999999);
#22=CIRCLE('',#690,6.49999999999999);
#23=CIRCLE('',#691,5.);
#24=CIRCLE('',#696,5.);
#25=CIRCLE('',#698,5.);
#26=CIRCLE('',#700,5.);
#27=CIRCLE('',#702,5.);
#28=CIRCLE('',#704,5.);
#29=CIRCLE('',#706,5.);
#30=CIRCLE('',#708,5.);
#31=CIRCLE('',#710,5.);
#32=CIRCLE('',#712,5.);
#33=CIRCLE('',#714,5.);
#34=CIRCLE('',#716,5.);
#35=CIRCLE('',#718,5.);
#36=CIRCLE('',#720,5.);
#37=CIRCLE('',#722,5.);
#38=CIRCLE('',#724,5.);
#39=CIRCLE('',#726,5.);
#40=CIRCLE('',#728,6.49999999999999);
#41=CIRCLE('',#732,6.49999999999999);
#42=CIRCLE('',#736,6.49999999999999);
#43=CIRCLE('',#740,6.49999999999999);
#44=CIRCLE('',#744,6.49999999999999);
#45=CIRCLE('',#748,6.49999999999999);
#46=CIRCLE('',#752,6.49999999999999);
#47=CIRCLE('',#756,6.49999999999999);
#48=CIRCLE('',#760,6.49999999999999);
#49=CIRCLE('',#764,6.49999999999999);
#50=CIRCLE('',#768,6.49999999999999);
#51=CIRCLE('',#769,6.49999999999999);
#52=CIRCLE('',#773,6.49999999999999);
#53=CIRCLE('',#777,6.49999999999999);
#54=CIRCLE('',#779,6.49999999999999);
#55=CIRCLE('',#780,6.49999999999999);
#56=CIRCLE('',#782,6.49999999999999);
#57=FACE_OUTER_BOUND('',#92,.T.);
#58=FACE_OUTER_BOUND('',#93,.T.);
#59=FACE_OUTER_BOUND('',#94,.T.);
#60=FACE_OUTER_BOUND('',#95,.T.);
#61=FACE_OUTER_BOUND('',#96,.T.);
#62=FACE_OUTER_BOUND('',#97,.T.);
#63=FACE_OUTER_BOUND('',#98,.T.);
#64=FACE_OUTER_BOUND('',#99,.T.);
#65=FACE_OUTER_BOUND('',#100,.T.);
#66=FACE_OUTER_BOUND('',#101,.T.);
#67=FACE_OUTER_BOUND('',#102,.T.);
#68=FACE_OUTER_BOUND('',#103,.T.);
#69=FACE_OUTER_BOUND('',#104,.T.);
#70=FACE_OUTER_BOUND('',#105,.T.);
#71=FACE_OUTER_BOUND('',#106,.T.);
#72=FACE_OUTER_BOUND('',#107,.T.);
#73=FACE_OUTER_BOUND('',#108,.T.);
#74=FACE_OUTER_BOUND('',#109,.T.);
#75=FACE_OUTER_BOUND('',#110,.T.);
#76=FACE_OUTER_BOUND('',#111,.T.);
#77=FACE_OUTER_BOUND('',#112,.T.);
#78=FACE_OUTER_BOUND('',#113,.T.);
#79=FACE_OUTER_BOUND('',#114,.T.);
#80=FACE_OUTER_BOUND('',#115,.T.);
#81=FACE_OUTER_BOUND('',#116,.T.);
#82=FACE_OUTER_BOUND('',#117,.T.);
#83=FACE_OUTER_BOUND('',#118,.T.);
#84=FACE_OUTER_BOUND('',#119,.T.);
#85=FACE_OUTER_BOUND('',#120,.T.);
#86=FACE_OUTER_BOUND('',#121,.T.);
#87=FACE_OUTER_BOUND('',#122,.T.);
#88=FACE_OUTER_BOUND('',#123,.T.);
#89=FACE_OUTER_BOUND('',#124,.T.);
#90=FACE_OUTER_BOUND('',#125,.T.);
#91=FACE_OUTER_BOUND('',#126,.T.);
#92=EDGE_LOOP('',(#399,#400,#401,#402));
#93=EDGE_LOOP('',(#403,#404,#405,#406));
#94=EDGE_LOOP('',(#407,#408,#409,#410));
#95=EDGE_LOOP('',(#411,#412,#413,#414,#415,#416,#417,#418,#419,#420,#421,
#422,#423,#424,#425,#426,#427,#428,#429,#430,#431,#432,#433,#434,#435,#436,
#437,#438,#439,#440,#441,#442,#443,#444,#445,#446));
#96=EDGE_LOOP('',(#447,#448,#449,#450));
#97=EDGE_LOOP('',(#451,#452,#453,#454));
#98=EDGE_LOOP('',(#455,#456,#457,#458));
#99=EDGE_LOOP('',(#459,#460,#461,#462));
#100=EDGE_LOOP('',(#463,#464,#465,#466));
#101=EDGE_LOOP('',(#467,#468,#469,#470));
#102=EDGE_LOOP('',(#471,#472,#473,#474));
#103=EDGE_LOOP('',(#475,#476,#477,#478));
#104=EDGE_LOOP('',(#479,#480,#481,#482));
#105=EDGE_LOOP('',(#483,#484,#485,#486));
#106=EDGE_LOOP('',(#487,#488,#489,#490));
#107=EDGE_LOOP('',(#491,#492,#493,#494));
#108=EDGE_LOOP('',(#495,#496,#497,#498));
#109=EDGE_LOOP('',(#499,#500,#501,#502));
#110=EDGE_LOOP('',(#503,#504,#505,#506));
#111=EDGE_LOOP('',(#507,#508,#509,#510));
#112=EDGE_LOOP('',(#511,#512,#513,#514));
#113=EDGE_LOOP('',(#515,#516,#517,#518,#519));
#114=EDGE_LOOP('',(#520,#521,#522,#523));
#115=EDGE_LOOP('',(#524,#525,#526,#527));
#116=EDGE_LOOP('',(#528,#529,#530,#531,#532));
#117=EDGE_LOOP('',(#533,#534,#535,#536));
#118=EDGE_LOOP('',(#537,#538,#539,#540));
#119=EDGE_LOOP('',(#541,#542,#543,#544));
#120=EDGE_LOOP('',(#545,#546,#547,#548));
#121=EDGE_LOOP('',(#549,#550,#551,#552,#553,#554,#555,#556,#557,#558,#559,
#560,#561,#562,#563,#564,#565,#566,#567,#568,#569,#570,#571,#572,#573,#574,
#575,#576,#577,#578,#579,#580,#581,#582,#583,#584));
#122=EDGE_LOOP('',(#585,#586,#587,#588));
#123=EDGE_LOOP('',(#589,#590,#591,#592));
#124=EDGE_LOOP('',(#593,#594,#595,#596));
#125=EDGE_LOOP('',(#597,#598,#599,#600));
#126=EDGE_LOOP('',(#601));
#127=EDGE_LOOP('',(#602));
#128=LINE('',#1043,#162);
#129=LINE('',#1046,#163);
#130=LINE('',#1052,#164);
#131=LINE('',#1058,#165);
#132=LINE('',#1101,#166);
#133=LINE('',#1125,#167);
#134=LINE('',#1130,#168);
#135=LINE('',#1131,#169);
#136=LINE('',#1135,#170);
#137=LINE('',#1141,#171);
#138=LINE('',#1146,#172);
#139=LINE('',#1147,#173);
#140=LINE('',#1151,#174);
#141=LINE('',#1157,#175);
#142=LINE('',#1162,#176);
#143=LINE('',#1163,#177);
#144=LINE('',#1167,#178);
#145=LINE('',#1173,#179);
#146=LINE('',#1178,#180);
#147=LINE('',#1179,#181);
#148=LINE('',#1183,#182);
#149=LINE('',#1189,#183);
#150=LINE('',#1194,#184);
#151=LINE('',#1195,#185);
#152=LINE('',#1199,#186);
#153=LINE('',#1207,#187);
#154=LINE('',#1212,#188);
#155=LINE('',#1213,#189);
#156=LINE('',#1217,#190);
#157=LINE('',#1223,#191);
#158=LINE('',#1227,#192);
#159=LINE('',#1236,#193);
#160=LINE('',#1237,#194);
#161=LINE('',#1239,#195);
#162=VECTOR('',#798,10.);
#163=VECTOR('',#801,10.);
#164=VECTOR('',#808,10.);
#165=VECTOR('',#815,10.);
#166=VECTOR('',#858,5.);
#167=VECTOR('',#885,10.);
#168=VECTOR('',#890,10.);
#169=VECTOR('',#891,10.);
#170=VECTOR('',#896,10.);
#171=VECTOR('',#905,10.);
#172=VECTOR('',#910,10.);
#173=VECTOR('',#911,10.);
#174=VECTOR('',#916,10.);
#175=VECTOR('',#925,10.);
#176=VECTOR('',#930,10.);
#177=VECTOR('',#931,10.);
#178=VECTOR('',#936,10.);
#179=VECTOR('',#945,10.);
#180=VECTOR('',#950,10.);
#181=VECTOR('',#951,10.);
#182=VECTOR('',#956,10.);
#183=VECTOR('',#965,10.);
#184=VECTOR('',#970,10.);
#185=VECTOR('',#971,10.);
#186=VECTOR('',#976,10.);
#187=VECTOR('',#987,10.);
#188=VECTOR('',#992,10.);
#189=VECTOR('',#993,10.);
#190=VECTOR('',#998,10.);
#191=VECTOR('',#1007,10.);
#192=VECTOR('',#1012,6.49999999999999);
#193=VECTOR('',#1023,10.);
#194=VECTOR('',#1024,10.);
#195=VECTOR('',#1027,10.);
#196=ELLIPSE('',#687,19.0047286010599,6.49999999999999);
#197=ELLIPSE('',#688,14.6190220008153,5.);
#198=ELLIPSE('',#693,19.0047286010601,6.5);
#199=ELLIPSE('',#694,14.6190220008154,5.);
#200=ELLIPSE('',#697,14.6190220008154,5.);
#201=ELLIPSE('',#699,14.6190220008153,5.);
#202=ELLIPSE('',#701,14.6190220008154,5.);
#203=ELLIPSE('',#703,14.6190220008153,5.);
#204=ELLIPSE('',#705,14.6190220008154,5.);
#205=ELLIPSE('',#707,14.6190220008153,5.);
#206=ELLIPSE('',#709,14.6190220008154,5.);
#207=ELLIPSE('',#711,14.6190220008153,5.);
#208=ELLIPSE('',#713,14.6190220008154,5.);
#209=ELLIPSE('',#715,14.6190220008153,5.);
#210=ELLIPSE('',#717,14.6190220008153,5.);
#211=ELLIPSE('',#719,14.6190220008154,5.);
#212=ELLIPSE('',#721,14.6190220008153,5.);
#213=ELLIPSE('',#723,14.6190220008154,5.);
#214=ELLIPSE('',#725,14.6190220008153,5.);
#215=ELLIPSE('',#730,19.0047286010599,6.49999999999999);
#216=ELLIPSE('',#734,19.0047286010601,6.5);
#217=ELLIPSE('',#738,19.0047286010599,6.49999999999999);
#218=ELLIPSE('',#742,19.0047286010601,6.49999999999999);
#219=ELLIPSE('',#746,19.0047286010599,6.49999999999999);
#220=ELLIPSE('',#750,19.0047286010601,6.5);
#221=ELLIPSE('',#754,19.0047286010599,6.5);
#222=ELLIPSE('',#758,19.0047286010601,6.5);
#223=ELLIPSE('',#762,19.0047286010599,6.5);
#224=ELLIPSE('',#766,19.0047286010601,6.5);
#225=ELLIPSE('',#771,19.0047286010599,6.5);
#226=ELLIPSE('',#775,19.0047286010601,6.5);
#227=ELLIPSE('',#781,19.0047286010599,6.5);
#228=ELLIPSE('',#783,19.0047286010601,6.5);
#229=VERTEX_POINT('',#1039);
#230=VERTEX_POINT('',#1040);
#231=VERTEX_POINT('',#1042);
#232=VERTEX_POINT('',#1044);
#233=VERTEX_POINT('',#1048);
#234=VERTEX_POINT('',#1050);
#235=VERTEX_POINT('',#1054);
#236=VERTEX_POINT('',#1056);
#237=VERTEX_POINT('',#1060);
#238=VERTEX_POINT('',#1062);
#239=VERTEX_POINT('',#1064);
#240=VERTEX_POINT('',#1066);
#241=VERTEX_POINT('',#1068);
#242=VERTEX_POINT('',#1070);
#243=VERTEX_POINT('',#1072);
#244=VERTEX_POINT('',#1074);
#245=VERTEX_POINT('',#1076);
#246=VERTEX_POINT('',#1078);
#247=VERTEX_POINT('',#1080);
#248=VERTEX_POINT('',#1082);
#249=VERTEX_POINT('',#1084);
#250=VERTEX_POINT('',#1086);
#251=VERTEX_POINT('',#1088);
#252=VERTEX_POINT('',#1090);
#253=VERTEX_POINT('',#1092);
#254=VERTEX_POINT('',#1094);
#255=VERTEX_POINT('',#1096);
#256=VERTEX_POINT('',#1098);
#257=VERTEX_POINT('',#1100);
#258=VERTEX_POINT('',#1103);
#259=VERTEX_POINT('',#1105);
#260=VERTEX_POINT('',#1107);
#261=VERTEX_POINT('',#1109);
#262=VERTEX_POINT('',#1111);
#263=VERTEX_POINT('',#1113);
#264=VERTEX_POINT('',#1115);
#265=VERTEX_POINT('',#1117);
#266=VERTEX_POINT('',#1119);
#267=VERTEX_POINT('',#1123);
#268=VERTEX_POINT('',#1127);
#269=VERTEX_POINT('',#1128);
#270=VERTEX_POINT('',#1133);
#271=VERTEX_POINT('',#1139);
#272=VERTEX_POINT('',#1143);
#273=VERTEX_POINT('',#1144);
#274=VERTEX_POINT('',#1149);
#275=VERTEX_POINT('',#1155);
#276=VERTEX_POINT('',#1159);
#277=VERTEX_POINT('',#1160);
#278=VERTEX_POINT('',#1165);
#279=VERTEX_POINT('',#1171);
#280=VERTEX_POINT('',#1175);
#281=VERTEX_POINT('',#1176);
#282=VERTEX_POINT('',#1181);
#283=VERTEX_POINT('',#1187);
#284=VERTEX_POINT('',#1191);
#285=VERTEX_POINT('',#1192);
#286=VERTEX_POINT('',#1197);
#287=VERTEX_POINT('',#1203);
#288=VERTEX_POINT('',#1205);
#289=VERTEX_POINT('',#1209);
#290=VERTEX_POINT('',#1210);
#291=VERTEX_POINT('',#1215);
#292=VERTEX_POINT('',#1221);
#293=VERTEX_POINT('',#1225);
#294=VERTEX_POINT('',#1228);
#295=VERTEX_POINT('',#1230);
#296=VERTEX_POINT('',#1232);
#297=EDGE_CURVE('',#229,#230,#196,.T.);
#298=EDGE_CURVE('',#230,#231,#128,.T.);
#299=EDGE_CURVE('',#231,#232,#197,.T.);
#300=EDGE_CURVE('',#229,#232,#129,.T.);
#301=EDGE_CURVE('',#233,#229,#22,.F.);
#302=EDGE_CURVE('',#232,#234,#23,.T.);
#303=EDGE_CURVE('',#234,#233,#130,.T.);
#304=EDGE_CURVE('',#235,#233,#198,.T.);
#305=EDGE_CURVE('',#234,#236,#199,.T.);
#306=EDGE_CURVE('',#236,#235,#131,.T.);
#307=EDGE_CURVE('',#237,#231,#24,.T.);
#308=EDGE_CURVE('',#238,#237,#200,.T.);
#309=EDGE_CURVE('',#239,#238,#25,.T.);
#310=EDGE_CURVE('',#240,#239,#201,.T.);
#311=EDGE_CURVE('',#241,#240,#26,.T.);
#312=EDGE_CURVE('',#242,#241,#202,.T.);
#313=EDGE_CURVE('',#243,#242,#27,.T.);
#314=EDGE_CURVE('',#244,#243,#203,.T.);
#315=EDGE_CURVE('',#245,#244,#28,.T.);
#316=EDGE_CURVE('',#246,#245,#204,.T.);
#317=EDGE_CURVE('',#247,#246,#29,.T.);
#318=EDGE_CURVE('',#248,#247,#205,.T.);
#319=EDGE_CURVE('',#249,#248,#30,.T.);
#320=EDGE_CURVE('',#250,#249,#206,.T.);
#321=EDGE_CURVE('',#251,#250,#31,.T.);
#322=EDGE_CURVE('',#252,#251,#207,.T.);
#323=EDGE_CURVE('',#253,#252,#32,.T.);
#324=EDGE_CURVE('',#254,#253,#208,.T.);
#325=EDGE_CURVE('',#255,#254,#33,.T.);
#326=EDGE_CURVE('',#256,#255,#209,.T.);
#327=EDGE_CURVE('',#256,#257,#132,.T.);
#328=EDGE_CURVE('',#257,#257,#34,.T.);
#329=EDGE_CURVE('',#258,#256,#210,.T.);
#330=EDGE_CURVE('',#259,#258,#35,.T.);
#331=EDGE_CURVE('',#260,#259,#211,.T.);
#332=EDGE_CURVE('',#261,#260,#36,.T.);
#333=EDGE_CURVE('',#262,#261,#212,.T.);
#334=EDGE_CURVE('',#263,#262,#37,.T.);
#335=EDGE_CURVE('',#264,#263,#213,.T.);
#336=EDGE_CURVE('',#265,#264,#38,.T.);
#337=EDGE_CURVE('',#266,#265,#214,.T.);
#338=EDGE_CURVE('',#236,#266,#39,.T.);
#339=EDGE_CURVE('',#267,#230,#40,.F.);
#340=EDGE_CURVE('',#237,#267,#133,.T.);
#341=EDGE_CURVE('',#268,#269,#215,.T.);
#342=EDGE_CURVE('',#269,#240,#134,.T.);
#343=EDGE_CURVE('',#268,#239,#135,.T.);
#344=EDGE_CURVE('',#270,#268,#41,.F.);
#345=EDGE_CURVE('',#238,#270,#136,.T.);
#346=EDGE_CURVE('',#267,#270,#216,.T.);
#347=EDGE_CURVE('',#271,#269,#42,.F.);
#348=EDGE_CURVE('',#241,#271,#137,.T.);
#349=EDGE_CURVE('',#272,#273,#217,.T.);
#350=EDGE_CURVE('',#273,#244,#138,.T.);
#351=EDGE_CURVE('',#272,#243,#139,.T.);
#352=EDGE_CURVE('',#274,#272,#43,.F.);
#353=EDGE_CURVE('',#242,#274,#140,.T.);
#354=EDGE_CURVE('',#271,#274,#218,.T.);
#355=EDGE_CURVE('',#275,#273,#44,.F.);
#356=EDGE_CURVE('',#245,#275,#141,.T.);
#357=EDGE_CURVE('',#276,#277,#219,.T.);
#358=EDGE_CURVE('',#277,#248,#142,.T.);
#359=EDGE_CURVE('',#276,#247,#143,.T.);
#360=EDGE_CURVE('',#278,#276,#45,.F.);
#361=EDGE_CURVE('',#246,#278,#144,.T.);
#362=EDGE_CURVE('',#275,#278,#220,.T.);
#363=EDGE_CURVE('',#279,#277,#46,.F.);
#364=EDGE_CURVE('',#249,#279,#145,.T.);
#365=EDGE_CURVE('',#280,#281,#221,.T.);
#366=EDGE_CURVE('',#281,#252,#146,.T.);
#367=EDGE_CURVE('',#280,#251,#147,.T.);
#368=EDGE_CURVE('',#282,#280,#47,.F.);
#369=EDGE_CURVE('',#250,#282,#148,.T.);
#370=EDGE_CURVE('',#279,#282,#222,.T.);
#371=EDGE_CURVE('',#283,#281,#48,.F.);
#372=EDGE_CURVE('',#253,#283,#149,.T.);
#373=EDGE_CURVE('',#284,#285,#223,.T.);
#374=EDGE_CURVE('',#285,#258,#150,.T.);
#375=EDGE_CURVE('',#284,#255,#151,.T.);
#376=EDGE_CURVE('',#286,#284,#49,.F.);
#377=EDGE_CURVE('',#254,#286,#152,.T.);
#378=EDGE_CURVE('',#283,#286,#224,.T.);
#379=EDGE_CURVE('',#287,#285,#50,.F.);
#380=EDGE_CURVE('',#288,#287,#51,.F.);
#381=EDGE_CURVE('',#259,#288,#153,.T.);
#382=EDGE_CURVE('',#289,#290,#225,.T.);
#383=EDGE_CURVE('',#290,#262,#154,.T.);
#384=EDGE_CURVE('',#289,#261,#155,.T.);
#385=EDGE_CURVE('',#291,#289,#52,.F.);
#386=EDGE_CURVE('',#260,#291,#156,.T.);
#387=EDGE_CURVE('',#288,#291,#226,.T.);
#388=EDGE_CURVE('',#292,#290,#53,.F.);
#389=EDGE_CURVE('',#292,#263,#157,.T.);
#390=EDGE_CURVE('',#293,#293,#54,.F.);
#391=EDGE_CURVE('',#293,#287,#158,.T.);
#392=EDGE_CURVE('',#235,#294,#55,.F.);
#393=EDGE_CURVE('',#295,#294,#227,.T.);
#394=EDGE_CURVE('',#296,#295,#56,.F.);
#395=EDGE_CURVE('',#292,#296,#228,.T.);
#396=EDGE_CURVE('',#266,#294,#159,.T.);
#397=EDGE_CURVE('',#295,#265,#160,.T.);
#398=EDGE_CURVE('',#264,#296,#161,.T.);
#399=ORIENTED_EDGE('',*,*,#297,.T.);
#400=ORIENTED_EDGE('',*,*,#298,.T.);
#401=ORIENTED_EDGE('',*,*,#299,.T.);
#402=ORIENTED_EDGE('',*,*,#300,.F.);
#403=ORIENTED_EDGE('',*,*,#301,.T.);
#404=ORIENTED_EDGE('',*,*,#300,.T.);
#405=ORIENTED_EDGE('',*,*,#302,.T.);
#406=ORIENTED_EDGE('',*,*,#303,.T.);
#407=ORIENTED_EDGE('',*,*,#304,.T.);
#408=ORIENTED_EDGE('',*,*,#303,.F.);
#409=ORIENTED_EDGE('',*,*,#305,.T.);
#410=ORIENTED_EDGE('',*,*,#306,.T.);
#411=ORIENTED_EDGE('',*,*,#305,.F.);
#412=ORIENTED_EDGE('',*,*,#302,.F.);
#413=ORIENTED_EDGE('',*,*,#299,.F.);
#414=ORIENTED_EDGE('',*,*,#307,.F.);
#415=ORIENTED_EDGE('',*,*,#308,.F.);
#416=ORIENTED_EDGE('',*,*,#309,.F.);
#417=ORIENTED_EDGE('',*,*,#310,.F.);
#418=ORIENTED_EDGE('',*,*,#311,.F.);
#419=ORIENTED_EDGE('',*,*,#312,.F.);
#420=ORIENTED_EDGE('',*,*,#313,.F.);
#421=ORIENTED_EDGE('',*,*,#314,.F.);
#422=ORIENTED_EDGE('',*,*,#315,.F.);
#423=ORIENTED_EDGE('',*,*,#316,.F.);
#424=ORIENTED_EDGE('',*,*,#317,.F.);
#425=ORIENTED_EDGE('',*,*,#318,.F.);
#426=ORIENTED_EDGE('',*,*,#319,.F.);
#427=ORIENTED_EDGE('',*,*,#320,.F.);
#428=ORIENTED_EDGE('',*,*,#321,.F.);
#429=ORIENTED_EDGE('',*,*,#322,.F.);
#430=ORIENTED_EDGE('',*,*,#323,.F.);
#431=ORIENTED_EDGE('',*,*,#324,.F.);
#432=ORIENTED_EDGE('',*,*,#325,.F.);
#433=ORIENTED_EDGE('',*,*,#326,.F.);
#434=ORIENTED_EDGE('',*,*,#327,.T.);
#435=ORIENTED_EDGE('',*,*,#328,.F.);
#436=ORIENTED_EDGE('',*,*,#327,.F.);
#437=ORIENTED_EDGE('',*,*,#329,.F.);
#438=ORIENTED_EDGE('',*,*,#330,.F.);
#439=ORIENTED_EDGE('',*,*,#331,.F.);
#440=ORIENTED_EDGE('',*,*,#332,.F.);
#441=ORIENTED_EDGE('',*,*,#333,.F.);
#442=ORIENTED_EDGE('',*,*,#334,.F.);
#443=ORIENTED_EDGE('',*,*,#335,.F.);
#444=ORIENTED_EDGE('',*,*,#336,.F.);
#445=ORIENTED_EDGE('',*,*,#337,.F.);
#446=ORIENTED_EDGE('',*,*,#338,.F.);
#447=ORIENTED_EDGE('',*,*,#298,.F.);
#448=ORIENTED_EDGE('',*,*,#339,.F.);
#449=ORIENTED_EDGE('',*,*,#340,.F.);
#450=ORIENTED_EDGE('',*,*,#307,.T.);
#451=ORIENTED_EDGE('',*,*,#341,.T.);
#452=ORIENTED_EDGE('',*,*,#342,.T.);
#453=ORIENTED_EDGE('',*,*,#310,.T.);
#454=ORIENTED_EDGE('',*,*,#343,.F.);
#455=ORIENTED_EDGE('',*,*,#344,.T.);
#456=ORIENTED_EDGE('',*,*,#343,.T.);
#457=ORIENTED_EDGE('',*,*,#309,.T.);
#458=ORIENTED_EDGE('',*,*,#345,.T.);
#459=ORIENTED_EDGE('',*,*,#346,.T.);
#460=ORIENTED_EDGE('',*,*,#345,.F.);
#461=ORIENTED_EDGE('',*,*,#308,.T.);
#462=ORIENTED_EDGE('',*,*,#340,.T.);
#463=ORIENTED_EDGE('',*,*,#342,.F.);
#464=ORIENTED_EDGE('',*,*,#347,.F.);
#465=ORIENTED_EDGE('',*,*,#348,.F.);
#466=ORIENTED_EDGE('',*,*,#311,.T.);
#467=ORIENTED_EDGE('',*,*,#349,.T.);
#468=ORIENTED_EDGE('',*,*,#350,.T.);
#469=ORIENTED_EDGE('',*,*,#314,.T.);
#470=ORIENTED_EDGE('',*,*,#351,.F.);
#471=ORIENTED_EDGE('',*,*,#352,.T.);
#472=ORIENTED_EDGE('',*,*,#351,.T.);
#473=ORIENTED_EDGE('',*,*,#313,.T.);
#474=ORIENTED_EDGE('',*,*,#353,.T.);
#475=ORIENTED_EDGE('',*,*,#354,.T.);
#476=ORIENTED_EDGE('',*,*,#353,.F.);
#477=ORIENTED_EDGE('',*,*,#312,.T.);
#478=ORIENTED_EDGE('',*,*,#348,.T.);
#479=ORIENTED_EDGE('',*,*,#350,.F.);
#480=ORIENTED_EDGE('',*,*,#355,.F.);
#481=ORIENTED_EDGE('',*,*,#356,.F.);
#482=ORIENTED_EDGE('',*,*,#315,.T.);
#483=ORIENTED_EDGE('',*,*,#357,.T.);
#484=ORIENTED_EDGE('',*,*,#358,.T.);
#485=ORIENTED_EDGE('',*,*,#318,.T.);
#486=ORIENTED_EDGE('',*,*,#359,.F.);
#487=ORIENTED_EDGE('',*,*,#360,.T.);
#488=ORIENTED_EDGE('',*,*,#359,.T.);
#489=ORIENTED_EDGE('',*,*,#317,.T.);
#490=ORIENTED_EDGE('',*,*,#361,.T.);
#491=ORIENTED_EDGE('',*,*,#362,.T.);
#492=ORIENTED_EDGE('',*,*,#361,.F.);
#493=ORIENTED_EDGE('',*,*,#316,.T.);
#494=ORIENTED_EDGE('',*,*,#356,.T.);
#495=ORIENTED_EDGE('',*,*,#358,.F.);
#496=ORIENTED_EDGE('',*,*,#363,.F.);
#497=ORIENTED_EDGE('',*,*,#364,.F.);
#498=ORIENTED_EDGE('',*,*,#319,.T.);
#499=ORIENTED_EDGE('',*,*,#365,.T.);
#500=ORIENTED_EDGE('',*,*,#366,.T.);
#501=ORIENTED_EDGE('',*,*,#322,.T.);
#502=ORIENTED_EDGE('',*,*,#367,.F.);
#503=ORIENTED_EDGE('',*,*,#368,.T.);
#504=ORIENTED_EDGE('',*,*,#367,.T.);
#505=ORIENTED_EDGE('',*,*,#321,.T.);
#506=ORIENTED_EDGE('',*,*,#369,.T.);
#507=ORIENTED_EDGE('',*,*,#370,.T.);
#508=ORIENTED_EDGE('',*,*,#369,.F.);
#509=ORIENTED_EDGE('',*,*,#320,.T.);
#510=ORIENTED_EDGE('',*,*,#364,.T.);
#511=ORIENTED_EDGE('',*,*,#366,.F.);
#512=ORIENTED_EDGE('',*,*,#371,.F.);
#513=ORIENTED_EDGE('',*,*,#372,.F.);
#514=ORIENTED_EDGE('',*,*,#323,.T.);
#515=ORIENTED_EDGE('',*,*,#373,.T.);
#516=ORIENTED_EDGE('',*,*,#374,.T.);
#517=ORIENTED_EDGE('',*,*,#329,.T.);
#518=ORIENTED_EDGE('',*,*,#326,.T.);
#519=ORIENTED_EDGE('',*,*,#375,.F.);
#520=ORIENTED_EDGE('',*,*,#376,.T.);
#521=ORIENTED_EDGE('',*,*,#375,.T.);
#522=ORIENTED_EDGE('',*,*,#325,.T.);
#523=ORIENTED_EDGE('',*,*,#377,.T.);
#524=ORIENTED_EDGE('',*,*,#378,.T.);
#525=ORIENTED_EDGE('',*,*,#377,.F.);
#526=ORIENTED_EDGE('',*,*,#324,.T.);
#527=ORIENTED_EDGE('',*,*,#372,.T.);
#528=ORIENTED_EDGE('',*,*,#374,.F.);
#529=ORIENTED_EDGE('',*,*,#379,.F.);
#530=ORIENTED_EDGE('',*,*,#380,.F.);
#531=ORIENTED_EDGE('',*,*,#381,.F.);
#532=ORIENTED_EDGE('',*,*,#330,.T.);
#533=ORIENTED_EDGE('',*,*,#382,.T.);
#534=ORIENTED_EDGE('',*,*,#383,.T.);
#535=ORIENTED_EDGE('',*,*,#333,.T.);
#536=ORIENTED_EDGE('',*,*,#384,.F.);
#537=ORIENTED_EDGE('',*,*,#385,.T.);
#538=ORIENTED_EDGE('',*,*,#384,.T.);
#539=ORIENTED_EDGE('',*,*,#332,.T.);
#540=ORIENTED_EDGE('',*,*,#386,.T.);
#541=ORIENTED_EDGE('',*,*,#387,.T.);
#542=ORIENTED_EDGE('',*,*,#386,.F.);
#543=ORIENTED_EDGE('',*,*,#331,.T.);
#544=ORIENTED_EDGE('',*,*,#381,.T.);
#545=ORIENTED_EDGE('',*,*,#383,.F.);
#546=ORIENTED_EDGE('',*,*,#388,.F.);
#547=ORIENTED_EDGE('',*,*,#389,.T.);
#548=ORIENTED_EDGE('',*,*,#334,.T.);
#549=ORIENTED_EDGE('',*,*,#390,.F.);
#550=ORIENTED_EDGE('',*,*,#391,.T.);
#551=ORIENTED_EDGE('',*,*,#379,.T.);
#552=ORIENTED_EDGE('',*,*,#373,.F.);
#553=ORIENTED_EDGE('',*,*,#376,.F.);
#554=ORIENTED_EDGE('',*,*,#378,.F.);
#555=ORIENTED_EDGE('',*,*,#371,.T.);
#556=ORIENTED_EDGE('',*,*,#365,.F.);
#557=ORIENTED_EDGE('',*,*,#368,.F.);
#558=ORIENTED_EDGE('',*,*,#370,.F.);
#559=ORIENTED_EDGE('',*,*,#363,.T.);
#560=ORIENTED_EDGE('',*,*,#357,.F.);
#561=ORIENTED_EDGE('',*,*,#360,.F.);
#562=ORIENTED_EDGE('',*,*,#362,.F.);
#563=ORIENTED_EDGE('',*,*,#355,.T.);
#564=ORIENTED_EDGE('',*,*,#349,.F.);
#565=ORIENTED_EDGE('',*,*,#352,.F.);
#566=ORIENTED_EDGE('',*,*,#354,.F.);
#567=ORIENTED_EDGE('',*,*,#347,.T.);
#568=ORIENTED_EDGE('',*,*,#341,.F.);
#569=ORIENTED_EDGE('',*,*,#344,.F.);
#570=ORIENTED_EDGE('',*,*,#346,.F.);
#571=ORIENTED_EDGE('',*,*,#339,.T.);
#572=ORIENTED_EDGE('',*,*,#297,.F.);
#573=ORIENTED_EDGE('',*,*,#301,.F.);
#574=ORIENTED_EDGE('',*,*,#304,.F.);
#575=ORIENTED_EDGE('',*,*,#392,.T.);
#576=ORIENTED_EDGE('',*,*,#393,.F.);
#577=ORIENTED_EDGE('',*,*,#394,.F.);
#578=ORIENTED_EDGE('',*,*,#395,.F.);
#579=ORIENTED_EDGE('',*,*,#388,.T.);
#580=ORIENTED_EDGE('',*,*,#382,.F.);
#581=ORIENTED_EDGE('',*,*,#385,.F.);
#582=ORIENTED_EDGE('',*,*,#387,.F.);
#583=ORIENTED_EDGE('',*,*,#380,.T.);
#584=ORIENTED_EDGE('',*,*,#391,.F.);
#585=ORIENTED_EDGE('',*,*,#393,.T.);
#586=ORIENTED_EDGE('',*,*,#396,.F.);
#587=ORIENTED_EDGE('',*,*,#337,.T.);
#588=ORIENTED_EDGE('',*,*,#397,.F.);
#589=ORIENTED_EDGE('',*,*,#394,.T.);
#590=ORIENTED_EDGE('',*,*,#397,.T.);
#591=ORIENTED_EDGE('',*,*,#336,.T.);
#592=ORIENTED_EDGE('',*,*,#398,.T.);
#593=ORIENTED_EDGE('',*,*,#395,.T.);
#594=ORIENTED_EDGE('',*,*,#398,.F.);
#595=ORIENTED_EDGE('',*,*,#335,.T.);
#596=ORIENTED_EDGE('',*,*,#389,.F.);
#597=ORIENTED_EDGE('',*,*,#306,.F.);
#598=ORIENTED_EDGE('',*,*,#338,.T.);
#599=ORIENTED_EDGE('',*,*,#396,.T.);
#600=ORIENTED_EDGE('',*,*,#392,.F.);
#601=ORIENTED_EDGE('',*,*,#390,.T.);
#602=ORIENTED_EDGE('',*,*,#328,.T.);
#603=PLANE('',#686);
#604=PLANE('',#689);
#605=PLANE('',#692);
#606=PLANE('',#727);
#607=PLANE('',#729);
#608=PLANE('',#731);
#609=PLANE('',#733);
#610=PLANE('',#735);
#611=PLANE('',#737);
#612=PLANE('',#739);
#613=PLANE('',#741);
#614=PLANE('',#743);
#615=PLANE('',#745);
#616=PLANE('',#747);
#617=PLANE('',#749);
#618=PLANE('',#751);
#619=PLANE('',#753);
#620=PLANE('',#755);
#621=PLANE('',#757);
#622=PLANE('',#759);
#623=PLANE('',#761);
#624=PLANE('',#763);
#625=PLANE('',#765);
#626=PLANE('',#767);
#627=PLANE('',#770);
#628=PLANE('',#772);
#629=PLANE('',#774);
#630=PLANE('',#776);
#631=PLANE('',#784);
#632=PLANE('',#785);
#633=PLANE('',#786);
#634=PLANE('',#787);
#635=PLANE('',#788);
#636=ADVANCED_FACE('',(#57),#603,.F.);
#637=ADVANCED_FACE('',(#58),#604,.T.);
#638=ADVANCED_FACE('',(#59),#605,.F.);
#639=ADVANCED_FACE('',(#60),#20,.F.);
#640=ADVANCED_FACE('',(#61),#606,.F.);
#641=ADVANCED_FACE('',(#62),#607,.F.);
#642=ADVANCED_FACE('',(#63),#608,.T.);
#643=ADVANCED_FACE('',(#64),#609,.F.);
#644=ADVANCED_FACE('',(#65),#610,.F.);
#645=ADVANCED_FACE('',(#66),#611,.F.);
#646=ADVANCED_FACE('',(#67),#612,.T.);
#647=ADVANCED_FACE('',(#68),#613,.F.);
#648=ADVANCED_FACE('',(#69),#614,.F.);
#649=ADVANCED_FACE('',(#70),#615,.F.);
#650=ADVANCED_FACE('',(#71),#616,.T.);
#651=ADVANCED_FACE('',(#72),#617,.F.);
#652=ADVANCED_FACE('',(#73),#618,.F.);
#653=ADVANCED_FACE('',(#74),#619,.F.);
#654=ADVANCED_FACE('',(#75),#620,.T.);
#655=ADVANCED_FACE('',(#76),#621,.F.);
#656=ADVANCED_FACE('',(#77),#622,.F.);
#657=ADVANCED_FACE('',(#78),#623,.F.);
#658=ADVANCED_FACE('',(#79),#624,.T.);
#659=ADVANCED_FACE('',(#80),#625,.F.);
#660=ADVANCED_FACE('',(#81),#626,.F.);
#661=ADVANCED_FACE('',(#82),#627,.F.);
#662=ADVANCED_FACE('',(#83),#628,.T.);
#663=ADVANCED_FACE('',(#84),#629,.F.);
#664=ADVANCED_FACE('',(#85),#630,.F.);
#665=ADVANCED_FACE('',(#86),#21,.T.);
#666=ADVANCED_FACE('',(#87),#631,.F.);
#667=ADVANCED_FACE('',(#88),#632,.T.);
#668=ADVANCED_FACE('',(#89),#633,.F.);
#669=ADVANCED_FACE('',(#90),#634,.F.);
#670=ADVANCED_FACE('',(#91,#19),#635,.T.);
#671=CLOSED_SHELL('',(#636,#637,#638,#639,#640,#641,#642,#643,#644,#645,
#646,#647,#648,#649,#650,#651,#652,#653,#654,#655,#656,#657,#658,#659,#660,
#661,#662,#663,#664,#665,#666,#667,#668,#669,#670));
#672=DERIVED_UNIT_ELEMENT(#674,1.);
#673=DERIVED_UNIT_ELEMENT(#1251,-3.);
#674=(
MASS_UNIT()
NAMED_UNIT(*)
SI_UNIT(.KILO.,.GRAM.)
);
#675=DERIVED_UNIT((#672,#673));
#676=MEASURE_REPRESENTATION_ITEM('density measure',
POSITIVE_RATIO_MEASURE(7850.),#675);
#677=PROPERTY_DEFINITION_REPRESENTATION(#682,#679);
#678=PROPERTY_DEFINITION_REPRESENTATION(#683,#680);
#679=REPRESENTATION('material name',(#681),#1248);
#680=REPRESENTATION('density',(#676),#1248);
#681=DESCRIPTIVE_REPRESENTATION_ITEM('Steel','Steel');
#682=PROPERTY_DEFINITION('material property','material name',#1263);
#683=PROPERTY_DEFINITION('material property','density of part',#1263);
#684=AXIS2_PLACEMENT_3D('',#1036,#790,#791);
#685=AXIS2_PLACEMENT_3D('',#1037,#792,#793);
#686=AXIS2_PLACEMENT_3D('',#1038,#794,#795);
#687=AXIS2_PLACEMENT_3D('',#1041,#796,#797);
#688=AXIS2_PLACEMENT_3D('',#1045,#799,#800);
#689=AXIS2_PLACEMENT_3D('',#1047,#802,#803);
#690=AXIS2_PLACEMENT_3D('',#1049,#804,#805);
#691=AXIS2_PLACEMENT_3D('',#1051,#806,#807);
#692=AXIS2_PLACEMENT_3D('',#1053,#809,#810);
#693=AXIS2_PLACEMENT_3D('',#1055,#811,#812);
#694=AXIS2_PLACEMENT_3D('',#1057,#813,#814);
#695=AXIS2_PLACEMENT_3D('',#1059,#816,#817);
#696=AXIS2_PLACEMENT_3D('',#1061,#818,#819);
#697=AXIS2_PLACEMENT_3D('',#1063,#820,#821);
#698=AXIS2_PLACEMENT_3D('',#1065,#822,#823);
#699=AXIS2_PLACEMENT_3D('',#1067,#824,#825);
#700=AXIS2_PLACEMENT_3D('',#1069,#826,#827);
#701=AXIS2_PLACEMENT_3D('',#1071,#828,#829);
#702=AXIS2_PLACEMENT_3D('',#1073,#830,#831);
#703=AXIS2_PLACEMENT_3D('',#1075,#832,#833);
#704=AXIS2_PLACEMENT_3D('',#1077,#834,#835);
#705=AXIS2_PLACEMENT_3D('',#1079,#836,#837);
#706=AXIS2_PLACEMENT_3D('',#1081,#838,#839);
#707=AXIS2_PLACEMENT_3D('',#1083,#840,#841);
#708=AXIS2_PLACEMENT_3D('',#1085,#842,#843);
#709=AXIS2_PLACEMENT_3D('',#1087,#844,#845);
#710=AXIS2_PLACEMENT_3D('',#1089,#846,#847);
#711=AXIS2_PLACEMENT_3D('',#1091,#848,#849);
#712=AXIS2_PLACEMENT_3D('',#1093,#850,#851);
#713=AXIS2_PLACEMENT_3D('',#1095,#852,#853);
#714=AXIS2_PLACEMENT_3D('',#1097,#854,#855);
#715=AXIS2_PLACEMENT_3D('',#1099,#856,#857);
#716=AXIS2_PLACEMENT_3D('',#1102,#859,#860);
#717=AXIS2_PLACEMENT_3D('',#1104,#861,#862);
#718=AXIS2_PLACEMENT_3D('',#1106,#863,#864);
#719=AXIS2_PLACEMENT_3D('',#1108,#865,#866);
#720=AXIS2_PLACEMENT_3D('',#1110,#867,#868);
#721=AXIS2_PLACEMENT_3D('',#1112,#869,#870);
#722=AXIS2_PLACEMENT_3D('',#1114,#871,#872);
#723=AXIS2_PLACEMENT_3D('',#1116,#873,#874);
#724=AXIS2_PLACEMENT_3D('',#1118,#875,#876);
#725=AXIS2_PLACEMENT_3D('',#1120,#877,#878);
#726=AXIS2_PLACEMENT_3D('',#1121,#879,#880);
#727=AXIS2_PLACEMENT_3D('',#1122,#881,#882);
#728=AXIS2_PLACEMENT_3D('',#1124,#883,#884);
#729=AXIS2_PLACEMENT_3D('',#1126,#886,#887);
#730=AXIS2_PLACEMENT_3D('',#1129,#888,#889);
#731=AXIS2_PLACEMENT_3D('',#1132,#892,#893);
#732=AXIS2_PLACEMENT_3D('',#1134,#894,#895);
#733=AXIS2_PLACEMENT_3D('',#1136,#897,#898);
#734=AXIS2_PLACEMENT_3D('',#1137,#899,#900);
#735=AXIS2_PLACEMENT_3D('',#1138,#901,#902);
#736=AXIS2_PLACEMENT_3D('',#1140,#903,#904);
#737=AXIS2_PLACEMENT_3D('',#1142,#906,#907);
#738=AXIS2_PLACEMENT_3D('',#1145,#908,#909);
#739=AXIS2_PLACEMENT_3D('',#1148,#912,#913);
#740=AXIS2_PLACEMENT_3D('',#1150,#914,#915);
#741=AXIS2_PLACEMENT_3D('',#1152,#917,#918);
#742=AXIS2_PLACEMENT_3D('',#1153,#919,#920);
#743=AXIS2_PLACEMENT_3D('',#1154,#921,#922);
#744=AXIS2_PLACEMENT_3D('',#1156,#923,#924);
#745=AXIS2_PLACEMENT_3D('',#1158,#926,#927);
#746=AXIS2_PLACEMENT_3D('',#1161,#928,#929);
#747=AXIS2_PLACEMENT_3D('',#1164,#932,#933);
#748=AXIS2_PLACEMENT_3D('',#1166,#934,#935);
#749=AXIS2_PLACEMENT_3D('',#1168,#937,#938);
#750=AXIS2_PLACEMENT_3D('',#1169,#939,#940);
#751=AXIS2_PLACEMENT_3D('',#1170,#941,#942);
#752=AXIS2_PLACEMENT_3D('',#1172,#943,#944);
#753=AXIS2_PLACEMENT_3D('',#1174,#946,#947);
#754=AXIS2_PLACEMENT_3D('',#1177,#948,#949);
#755=AXIS2_PLACEMENT_3D('',#1180,#952,#953);
#756=AXIS2_PLACEMENT_3D('',#1182,#954,#955);
#757=AXIS2_PLACEMENT_3D('',#1184,#957,#958);
#758=AXIS2_PLACEMENT_3D('',#1185,#959,#960);
#759=AXIS2_PLACEMENT_3D('',#1186,#961,#962);
#760=AXIS2_PLACEMENT_3D('',#1188,#963,#964);
#761=AXIS2_PLACEMENT_3D('',#1190,#966,#967);
#762=AXIS2_PLACEMENT_3D('',#1193,#968,#969);
#763=AXIS2_PLACEMENT_3D('',#1196,#972,#973);
#764=AXIS2_PLACEMENT_3D('',#1198,#974,#975);
#765=AXIS2_PLACEMENT_3D('',#1200,#977,#978);
#766=AXIS2_PLACEMENT_3D('',#1201,#979,#980);
#767=AXIS2_PLACEMENT_3D('',#1202,#981,#982);
#768=AXIS2_PLACEMENT_3D('',#1204,#983,#984);
#769=AXIS2_PLACEMENT_3D('',#1206,#985,#986);
#770=AXIS2_PLACEMENT_3D('',#1208,#988,#989);
#771=AXIS2_PLACEMENT_3D('',#1211,#990,#991);
#772=AXIS2_PLACEMENT_3D('',#1214,#994,#995);
#773=AXIS2_PLACEMENT_3D('',#1216,#996,#997);
#774=AXIS2_PLACEMENT_3D('',#1218,#999,#1000);
#775=AXIS2_PLACEMENT_3D('',#1219,#1001,#1002);
#776=AXIS2_PLACEMENT_3D('',#1220,#1003,#1004);
#777=AXIS2_PLACEMENT_3D('',#1222,#1005,#1006);
#778=AXIS2_PLACEMENT_3D('',#1224,#1008,#1009);
#779=AXIS2_PLACEMENT_3D('',#1226,#1010,#1011);
#780=AXIS2_PLACEMENT_3D('',#1229,#1013,#1014);
#781=AXIS2_PLACEMENT_3D('',#1231,#1015,#1016);
#782=AXIS2_PLACEMENT_3D('',#1233,#1017,#1018);
#783=AXIS2_PLACEMENT_3D('',#1234,#1019,#1020);
#784=AXIS2_PLACEMENT_3D('',#1235,#1021,#1022);
#785=AXIS2_PLACEMENT_3D('',#1238,#1025,#1026);
#786=AXIS2_PLACEMENT_3D('',#1240,#1028,#1029);
#787=AXIS2_PLACEMENT_3D('',#1241,#1030,#1031);
#788=AXIS2_PLACEMENT_3D('',#1242,#1032,#1033);
#789=AXIS2_PLACEMENT_3D('',#1243,#1034,#1035);
#790=DIRECTION('axis',(0.,0.,1.));
#791=DIRECTION('refdir',(1.,0.,0.));
#792=DIRECTION('axis',(0.,0.,1.));
#793=DIRECTION('refdir',(1.,0.,0.));
#794=DIRECTION('center_axis',(0.342020143325671,0.725231741309804,0.597545933762617));
#795=DIRECTION('ref_axis',(-1.71368585765362E-16,-0.635895100743541,0.771775498995894));
#796=DIRECTION('center_axis',(-0.342020143325671,-0.725231741309804,-0.597545933762617));
#797=DIRECTION('ref_axis',(-0.939692620785908,0.263962766781817,0.217488933496398));
#798=DIRECTION('',(1.71368585765362E-16,0.635895100743541,-0.771775498995894));
#799=DIRECTION('center_axis',(0.342020143325671,0.725231741309804,0.597545933762617));
#800=DIRECTION('ref_axis',(-0.939692620785908,0.263962766781817,0.217488933496398));
#801=DIRECTION('',(1.71368585765362E-16,0.635895100743541,-0.771775498995894));
#802=DIRECTION('center_axis',(-1.,7.39557098644699E-32,-2.22044604925031E-16));
#803=DIRECTION('ref_axis',(1.57009245868377E-16,-0.707106781186548,-0.707106781186547));
#804=DIRECTION('center_axis',(1.,-7.39557098644699E-32,2.22044604925031E-16));
#805=DIRECTION('ref_axis',(-2.22044604925031E-16,-1.22464679914735E-16,
1.));
#806=DIRECTION('center_axis',(1.,-7.39557098644699E-32,2.22044604925031E-16));
#807=DIRECTION('ref_axis',(-2.22044604925031E-16,-1.22464679914735E-16,
1.));
#808=DIRECTION('',(-2.37756908943177E-17,-0.994250817936362,0.107076192652125));
#809=DIRECTION('center_axis',(0.342020143325669,-0.100618708097052,-0.934290156825153));
#810=DIRECTION('ref_axis',(2.37756908943177E-17,0.994250817936362,-0.107076192652125));
#811=DIRECTION('center_axis',(-0.342020143325669,0.100618708097052,0.934290156825153));
#812=DIRECTION('ref_axis',(0.939692620785908,0.0366222147576466,0.340053807252258));
#813=DIRECTION('center_axis',(0.342020143325669,-0.100618708097052,-0.934290156825153));
#814=DIRECTION('ref_axis',(0.939692620785908,0.0366222147576466,0.340053807252258));
#815=DIRECTION('',(-2.37756908943177E-17,-0.994250817936362,0.107076192652125));
#816=DIRECTION('center_axis',(1.,-7.39557098644699E-32,2.22044604925031E-16));
#817=DIRECTION('ref_axis',(-2.22044604925031E-16,-1.22464679914735E-16,
1.));
#818=DIRECTION('center_axis',(1.,-7.39557098644699E-32,2.22044604925031E-16));
#819=DIRECTION('ref_axis',(-2.22044604925031E-16,-1.22464679914735E-16,
1.));
#820=DIRECTION('center_axis',(0.342020143325669,-0.731791076296564,-0.589494734677254));
#821=DIRECTION('ref_axis',(0.939692620785908,0.266350169473577,0.214558536679173));
#822=DIRECTION('center_axis',(1.,-7.39557098644699E-32,2.22044604925031E-16));
#823=DIRECTION('ref_axis',(-2.22044604925031E-16,-1.22464679914735E-16,
1.));
#824=DIRECTION('center_axis',(0.342020143325671,0.935345064045884,-0.0902875003778962));
#825=DIRECTION('ref_axis',(0.939692620785907,-0.340437762080519,0.0328619626638533));
#826=DIRECTION('center_axis',(1.,-7.39557098644699E-32,2.22044604925031E-16));
#827=DIRECTION('ref_axis',(-2.22044604925031E-16,-1.22464679914735E-16,
1.));
#828=DIRECTION('center_axis',(0.342020143325669,-0.934290156825153,0.100618708097052));
#829=DIRECTION('ref_axis',(-0.939692620785908,-0.340053807252258,0.0366222147576464));
#830=DIRECTION('center_axis',(1.,-7.39557098644699E-32,2.22044604925031E-16));
#831=DIRECTION('ref_axis',(-2.22044604925031E-16,-1.22464679914735E-16,
1.));
#832=DIRECTION('center_axis',(0.342020143325671,0.597545933762617,-0.725231741309803));
#833=DIRECTION('ref_axis',(0.939692620785907,-0.217488933496398,0.263962766781817));
#834=DIRECTION('center_axis',(1.,-7.39557098644699E-32,2.22044604925031E-16));
#835=DIRECTION('ref_axis',(-2.22044604925031E-16,-1.22464679914735E-16,
1.));
#836=DIRECTION('center_axis',(0.342020143325668,-0.589494734677254,0.731791076296564));
#837=DIRECTION('ref_axis',(-0.939692620785909,-0.214558536679173,0.266350169473576));
#838=DIRECTION('center_axis',(1.,-7.39557098644699E-32,2.22044604925031E-16));
#839=DIRECTION('ref_axis',(-2.22044604925031E-16,-1.22464679914735E-16,
1.));
#840=DIRECTION('center_axis',(0.342020143325671,-0.0902875003778962,-0.935345064045884));
#841=DIRECTION('ref_axis',(0.939692620785907,0.032861962663853,0.340437762080519));
#842=DIRECTION('center_axis',(1.,-7.39557098644699E-32,2.22044604925031E-16));
#843=DIRECTION('ref_axis',(-2.22044604925031E-16,-1.22464679914735E-16,
1.));
#844=DIRECTION('center_axis',(0.342020143325668,0.100618708097052,0.934290156825153));
#845=DIRECTION('ref_axis',(-0.939692620785908,0.0366222147576466,0.340053807252258));
#846=DIRECTION('center_axis',(1.,-7.39557098644699E-32,2.22044604925031E-16));
#847=DIRECTION('ref_axis',(-2.22044604925031E-16,-1.22464679914735E-16,
1.));
#848=DIRECTION('center_axis',(0.342020143325671,-0.725231741309804,-0.597545933762617));
#849=DIRECTION('ref_axis',(0.939692620785907,0.263962766781817,0.217488933496398));
#850=DIRECTION('center_axis',(1.,-7.39557098644699E-32,2.22044604925031E-16));
#851=DIRECTION('ref_axis',(-2.22044604925031E-16,-1.22464679914735E-16,
1.));
#852=DIRECTION('center_axis',(0.342020143325668,0.731791076296564,0.589494734677254));
#853=DIRECTION('ref_axis',(-0.939692620785908,0.266350169473577,0.214558536679173));
#854=DIRECTION('center_axis',(1.,-7.39557098644699E-32,2.22044604925031E-16));
#855=DIRECTION('ref_axis',(-2.22044604925031E-16,-1.22464679914735E-16,
1.));
#856=DIRECTION('center_axis',(0.342020143325671,-0.935345064045884,0.0902875003778962));
#857=DIRECTION('ref_axis',(-0.939692620785908,-0.340437762080519,0.0328619626638528));
#858=DIRECTION('',(1.,-7.39557098644699E-32,2.22044604925031E-16));
#859=DIRECTION('center_axis',(-1.,7.39557098644699E-32,-2.22044604925031E-16));
#860=DIRECTION('ref_axis',(-2.22044604925031E-16,-1.22464679914735E-16,
1.));
#861=DIRECTION('center_axis',(0.342020143325671,-0.935345064045884,0.0902875003778962));
#862=DIRECTION('ref_axis',(-0.939692620785908,-0.340437762080519,0.0328619626638528));
#863=DIRECTION('center_axis',(1.,-7.39557098644699E-32,2.22044604925031E-16));
#864=DIRECTION('ref_axis',(-2.22044604925031E-16,-1.22464679914735E-16,
1.));
#865=DIRECTION('center_axis',(0.342020143325669,0.934290156825153,-0.100618708097052));
#866=DIRECTION('ref_axis',(0.939692620785908,-0.340053807252258,0.0366222147576468));
#867=DIRECTION('center_axis',(1.,-7.39557098644699E-32,2.22044604925031E-16));
#868=DIRECTION('ref_axis',(-2.22044604925031E-16,-1.22464679914735E-16,
1.));
#869=DIRECTION('center_axis',(0.342020143325671,-0.597545933762617,0.725231741309804));
#870=DIRECTION('ref_axis',(-0.939692620785908,-0.217488933496398,0.263962766781817));
#871=DIRECTION('center_axis',(1.,-7.39557098644699E-32,2.22044604925031E-16));
#872=DIRECTION('ref_axis',(-2.22044604925031E-16,-1.22464679914735E-16,
1.));
#873=DIRECTION('center_axis',(0.342020143325669,0.589494734677254,-0.731791076296564));
#874=DIRECTION('ref_axis',(0.939692620785908,-0.214558536679173,0.266350169473577));
#875=DIRECTION('center_axis',(1.,-7.39557098644699E-32,2.22044604925031E-16));
#876=DIRECTION('ref_axis',(-2.22044604925031E-16,-1.22464679914735E-16,
1.));
#877=DIRECTION('center_axis',(0.342020143325671,0.0902875003778961,0.935345064045884));
#878=DIRECTION('ref_axis',(-0.939692620785908,0.0328619626638529,0.340437762080519));
#879=DIRECTION('center_axis',(1.,-7.39557098644699E-32,2.22044604925031E-16));
#880=DIRECTION('ref_axis',(-2.22044604925031E-16,-1.22464679914735E-16,
1.));
#881=DIRECTION('center_axis',(1.,-7.39557098644699E-32,2.22044604925031E-16));
#882=DIRECTION('ref_axis',(-2.22044604925031E-16,-1.22464679914735E-16,
1.));
#883=DIRECTION('center_axis',(-1.,7.39557098644699E-32,-2.22044604925031E-16));
#884=DIRECTION('ref_axis',(-2.22044604925031E-16,-1.22464679914735E-16,
1.));
#885=DIRECTION('',(-1.72918523386973E-16,-0.627327193635119,0.778755797491028));
#886=DIRECTION('center_axis',(0.342020143325671,0.935345064045884,-0.0902875003778962));
#887=DIRECTION('ref_axis',(-2.21017299296175E-16,0.0960819510345678,0.995373426752689));
#888=DIRECTION('center_axis',(-0.342020143325671,-0.935345064045884,0.0902875003778962));
#889=DIRECTION('ref_axis',(0.939692620785907,-0.340437762080519,0.0328619626638533));
#890=DIRECTION('',(2.21017299296175E-16,-0.0960819510345678,-0.995373426752689));
#891=DIRECTION('',(2.21017299296175E-16,-0.0960819510345678,-0.995373426752689));
#892=DIRECTION('center_axis',(-1.,7.39557098644699E-32,-2.22044604925031E-16));
#893=DIRECTION('ref_axis',(-9.86076131526265E-32,-1.,6.12323399573676E-17));
#894=DIRECTION('center_axis',(1.,-7.39557098644699E-32,2.22044604925031E-16));
#895=DIRECTION('ref_axis',(-2.22044604925031E-16,-1.22464679914735E-16,
1.));
#896=DIRECTION('',(-1.72918523386973E-16,-0.627327193635119,0.778755797491028));
#897=DIRECTION('center_axis',(0.342020143325669,-0.731791076296564,-0.589494734677254));
#898=DIRECTION('ref_axis',(1.72918523386973E-16,0.627327193635118,-0.778755797491028));
#899=DIRECTION('center_axis',(-0.342020143325669,0.731791076296564,0.589494734677254));
#900=DIRECTION('ref_axis',(0.939692620785908,0.266350169473577,0.214558536679173));
#901=DIRECTION('center_axis',(1.,-7.39557098644699E-32,2.22044604925031E-16));
#902=DIRECTION('ref_axis',(-2.22044604925031E-16,-1.22464679914735E-16,
1.));
#903=DIRECTION('center_axis',(-1.,7.39557098644699E-32,-2.22044604925031E-16));
#904=DIRECTION('ref_axis',(-2.22044604925031E-16,-1.22464679914735E-16,
1.));
#905=DIRECTION('',(-2.20768030065069E-16,0.107076192652125,0.994250817936362));
#906=DIRECTION('center_axis',(0.342020143325671,0.597545933762617,-0.725231741309803));
#907=DIRECTION('ref_axis',(-1.41197076418363E-16,0.771775498995894,0.635895100743541));
#908=DIRECTION('center_axis',(-0.342020143325671,-0.597545933762617,0.725231741309803));
#909=DIRECTION('ref_axis',(0.939692620785907,-0.217488933496398,0.263962766781818));
#910=DIRECTION('',(1.41197076418362E-16,-0.771775498995894,-0.635895100743541));
#911=DIRECTION('',(1.41197076418362E-16,-0.771775498995894,-0.635895100743541));
#912=DIRECTION('center_axis',(-1.,7.39557098644699E-32,-2.22044604925031E-16));
#913=DIRECTION('ref_axis',(-1.57009245868378E-16,-0.707106781186548,0.707106781186548));
#914=DIRECTION('center_axis',(1.,-7.39557098644699E-32,2.22044604925031E-16));
#915=DIRECTION('ref_axis',(-2.22044604925031E-16,-1.22464679914735E-16,
1.));
#916=DIRECTION('',(-2.20768030065069E-16,0.107076192652125,0.994250817936362));
#917=DIRECTION('center_axis',(0.342020143325669,-0.934290156825153,0.100618708097052));
#918=DIRECTION('ref_axis',(2.20768030065069E-16,-0.107076192652125,-0.994250817936362));
#919=DIRECTION('center_axis',(-0.342020143325669,0.934290156825153,-0.100618708097052));
#920=DIRECTION('ref_axis',(-0.939692620785908,-0.340053807252258,0.0366222147576464));
#921=DIRECTION('center_axis',(1.,-7.39557098644699E-32,2.22044604925031E-16));
#922=DIRECTION('ref_axis',(-2.22044604925031E-16,-1.22464679914735E-16,
1.));
#923=DIRECTION('center_axis',(-1.,7.39557098644699E-32,-2.22044604925031E-16));
#924=DIRECTION('ref_axis',(-2.22044604925031E-16,-1.22464679914735E-16,
1.));
#925=DIRECTION('',(-1.39294618869438E-16,0.778755797491028,0.627327193635119));
#926=DIRECTION('center_axis',(0.342020143325671,-0.0902875003778962,-0.935345064045884));
#927=DIRECTION('ref_axis',(2.13344788578969E-17,0.995373426752689,-0.0960819510345677));
#928=DIRECTION('center_axis',(-0.342020143325671,0.0902875003778962,0.935345064045884));
#929=DIRECTION('ref_axis',(0.939692620785907,0.032861962663853,0.34043776208052));
#930=DIRECTION('',(-2.13344788578969E-17,-0.995373426752689,0.0960819510345677));
#931=DIRECTION('',(-2.13344788578969E-17,-0.995373426752689,0.0960819510345677));
#932=DIRECTION('center_axis',(-1.,7.39557098644699E-32,-2.22044604925031E-16));
#933=DIRECTION('ref_axis',(-2.22044604925031E-16,-2.46519032881566E-32,
1.));
#934=DIRECTION('center_axis',(1.,-7.39557098644699E-32,2.22044604925031E-16));
#935=DIRECTION('ref_axis',(-2.22044604925031E-16,-1.22464679914735E-16,
1.));
#936=DIRECTION('',(-1.39294618869438E-16,0.778755797491028,0.627327193635119));
#937=DIRECTION('center_axis',(0.342020143325668,-0.589494734677254,0.731791076296564));
#938=DIRECTION('ref_axis',(1.39294618869438E-16,-0.778755797491028,-0.627327193635118));
#939=DIRECTION('center_axis',(-0.342020143325668,0.589494734677254,-0.731791076296564));
#940=DIRECTION('ref_axis',(-0.939692620785908,-0.214558536679173,0.266350169473576));
#941=DIRECTION('center_axis',(1.,-7.39557098644699E-32,2.22044604925031E-16));
#942=DIRECTION('ref_axis',(-2.22044604925031E-16,-1.22464679914735E-16,
1.));
#943=DIRECTION('center_axis',(-1.,7.39557098644699E-32,-2.22044604925031E-16));
#944=DIRECTION('ref_axis',(-2.22044604925031E-16,-1.22464679914735E-16,
1.));
#945=DIRECTION('',(2.37756908943176E-17,0.994250817936362,-0.107076192652125));
#946=DIRECTION('center_axis',(0.342020143325671,-0.725231741309804,-0.597545933762617));
#947=DIRECTION('ref_axis',(1.71368585765362E-16,0.635895100743541,-0.771775498995894));
#948=DIRECTION('center_axis',(-0.342020143325671,0.725231741309804,0.597545933762617));
#949=DIRECTION('ref_axis',(0.939692620785907,0.263962766781817,0.217488933496398));
#950=DIRECTION('',(-1.71368585765362E-16,-0.635895100743541,0.771775498995894));
#951=DIRECTION('',(-1.71368585765362E-16,-0.635895100743541,0.771775498995894));
#952=DIRECTION('center_axis',(-1.,7.39557098644699E-32,-2.22044604925031E-16));
#953=DIRECTION('ref_axis',(-1.57009245868377E-16,0.707106781186547,0.707106781186548));
#954=DIRECTION('center_axis',(1.,-7.39557098644699E-32,2.22044604925031E-16));
#955=DIRECTION('ref_axis',(-2.22044604925031E-16,-1.22464679914735E-16,
1.));
#956=DIRECTION('',(2.37756908943177E-17,0.994250817936362,-0.107076192652125));
#957=DIRECTION('center_axis',(0.342020143325668,0.100618708097052,0.934290156825153));
#958=DIRECTION('ref_axis',(-2.37756908943176E-17,-0.994250817936362,0.107076192652125));
#959=DIRECTION('center_axis',(-0.342020143325668,-0.100618708097052,-0.934290156825153));
#960=DIRECTION('ref_axis',(-0.939692620785909,0.0366222147576466,0.340053807252258));
#961=DIRECTION('center_axis',(1.,-7.39557098644699E-32,2.22044604925031E-16));
#962=DIRECTION('ref_axis',(-2.22044604925031E-16,-1.22464679914735E-16,
1.));
#963=DIRECTION('center_axis',(-1.,7.39557098644699E-32,-2.22044604925031E-16));
#964=DIRECTION('ref_axis',(-2.22044604925031E-16,-1.22464679914735E-16,
1.));
#965=DIRECTION('',(1.72918523386973E-16,0.627327193635119,-0.778755797491028));
#966=DIRECTION('center_axis',(0.342020143325671,-0.935345064045884,0.0902875003778962));
#967=DIRECTION('ref_axis',(2.21017299296175E-16,-0.0960819510345677,-0.995373426752689));
#968=DIRECTION('center_axis',(-0.342020143325671,0.935345064045884,-0.0902875003778962));
#969=DIRECTION('ref_axis',(-0.939692620785907,-0.340437762080519,0.0328619626638528));
#970=DIRECTION('',(-2.21017299296175E-16,0.0960819510345677,0.995373426752689));
#971=DIRECTION('',(-2.21017299296175E-16,0.0960819510345677,0.995373426752689));
#972=DIRECTION('center_axis',(-1.,7.39557098644699E-32,-2.22044604925031E-16));
#973=DIRECTION('ref_axis',(9.86076131526265E-32,1.,6.12323399573677E-17));
#974=DIRECTION('center_axis',(1.,-7.39557098644699E-32,2.22044604925031E-16));
#975=DIRECTION('ref_axis',(-2.22044604925031E-16,-1.22464679914735E-16,
1.));
#976=DIRECTION('',(1.72918523386973E-16,0.627327193635119,-0.778755797491028));
#977=DIRECTION('center_axis',(0.342020143325668,0.731791076296564,0.589494734677254));
#978=DIRECTION('ref_axis',(-1.72918523386973E-16,-0.627327193635119,0.778755797491028));
#979=DIRECTION('center_axis',(-0.342020143325668,-0.731791076296564,-0.589494734677254));
#980=DIRECTION('ref_axis',(-0.939692620785908,0.266350169473577,0.214558536679172));
#981=DIRECTION('center_axis',(1.,-7.39557098644699E-32,2.22044604925031E-16));
#982=DIRECTION('ref_axis',(-2.22044604925031E-16,-1.22464679914735E-16,
1.));
#983=DIRECTION('center_axis',(-1.,7.39557098644699E-32,-2.22044604925031E-16));
#984=DIRECTION('ref_axis',(-2.22044604925031E-16,-1.22464679914735E-16,
1.));
#985=DIRECTION('center_axis',(-1.,7.39557098644699E-32,-2.22044604925031E-16));
#986=DIRECTION('ref_axis',(-2.22044604925031E-16,-1.22464679914735E-16,
1.));
#987=DIRECTION('',(2.20768030065069E-16,-0.107076192652125,-0.994250817936362));
#988=DIRECTION('center_axis',(0.342020143325671,-0.597545933762617,0.725231741309804));
#989=DIRECTION('ref_axis',(1.41197076418363E-16,-0.771775498995894,-0.635895100743541));
#990=DIRECTION('center_axis',(-0.342020143325671,0.597545933762617,-0.725231741309804));
#991=DIRECTION('ref_axis',(-0.939692620785908,-0.217488933496398,0.263962766781817));
#992=DIRECTION('',(-1.41197076418363E-16,0.771775498995894,0.635895100743541));
#993=DIRECTION('',(-1.41197076418363E-16,0.771775498995894,0.635895100743541));
#994=DIRECTION('center_axis',(-1.,7.39557098644699E-32,-2.22044604925031E-16));
#995=DIRECTION('ref_axis',(1.57009245868378E-16,0.707106781186548,-0.707106781186547));
#996=DIRECTION('center_axis',(1.,-7.39557098644699E-32,2.22044604925031E-16));
#997=DIRECTION('ref_axis',(-2.22044604925031E-16,-1.22464679914735E-16,
1.));
#998=DIRECTION('',(2.20768030065069E-16,-0.107076192652125,-0.994250817936362));
#999=DIRECTION('center_axis',(0.342020143325669,0.934290156825153,-0.100618708097052));
#1000=DIRECTION('ref_axis',(-2.20768030065069E-16,0.107076192652125,0.994250817936362));
#1001=DIRECTION('center_axis',(-0.342020143325669,-0.934290156825153,0.100618708097052));
#1002=DIRECTION('ref_axis',(0.939692620785908,-0.340053807252258,0.0366222147576468));
#1003=DIRECTION('center_axis',(1.,-7.39557098644699E-32,2.22044604925031E-16));
#1004=DIRECTION('ref_axis',(-2.22044604925031E-16,-1.22464679914735E-16,
1.));
#1005=DIRECTION('center_axis',(-1.,7.39557098644699E-32,-2.22044604925031E-16));
#1006=DIRECTION('ref_axis',(-2.22044604925031E-16,-1.22464679914735E-16,
1.));
#1007=DIRECTION('',(-1.39294618869438E-16,0.778755797491028,0.627327193635119));
#1008=DIRECTION('center_axis',(1.,-7.39557098644699E-32,2.22044604925031E-16));
#1009=DIRECTION('ref_axis',(-2.22044604925031E-16,-1.22464679914735E-16,
1.));
#1010=DIRECTION('center_axis',(-1.,7.39557098644699E-32,-2.22044604925031E-16));
#1011=DIRECTION('ref_axis',(-2.22044604925031E-16,-1.22464679914735E-16,
1.));
#1012=DIRECTION('',(-1.,7.39557098644699E-32,-2.22044604925031E-16));
#1013=DIRECTION('center_axis',(-1.,7.39557098644699E-32,-2.22044604925031E-16));
#1014=DIRECTION('ref_axis',(-2.22044604925031E-16,-1.22464679914735E-16,
1.));
#1015=DIRECTION('center_axis',(-0.342020143325671,-0.0902875003778961,-0.935345064045884));
#1016=DIRECTION('ref_axis',(-0.939692620785907,0.0328619626638529,0.340437762080519));
#1017=DIRECTION('center_axis',(1.,-7.39557098644699E-32,2.22044604925031E-16));
#1018=DIRECTION('ref_axis',(-2.22044604925031E-16,-1.22464679914735E-16,
1.));
#1019=DIRECTION('center_axis',(-0.342020143325669,-0.589494734677254,0.731791076296564));
#1020=DIRECTION('ref_axis',(0.939692620785908,-0.214558536679173,0.266350169473577));
#1021=DIRECTION('center_axis',(0.342020143325671,0.0902875003778961,0.935345064045884));
#1022=DIRECTION('ref_axis',(-2.13344788578968E-17,-0.995373426752689,0.0960819510345676));
#1023=DIRECTION('',(-2.13344788578968E-17,-0.995373426752689,0.0960819510345676));
#1024=DIRECTION('',(2.13344788578968E-17,0.995373426752689,-0.0960819510345676));
#1025=DIRECTION('center_axis',(-1.,7.39557098644699E-32,-2.22044604925031E-16));
#1026=DIRECTION('ref_axis',(2.22044604925031E-16,1.22464679914735E-16,-1.));
#1027=DIRECTION('',(1.39294618869438E-16,-0.778755797491028,-0.627327193635119));
#1028=DIRECTION('center_axis',(0.342020143325669,0.589494734677254,-0.731791076296564));
#1029=DIRECTION('ref_axis',(-1.39294618869438E-16,0.778755797491028,0.627327193635119));
#1030=DIRECTION('center_axis',(1.,-7.39557098644699E-32,2.22044604925031E-16));
#1031=DIRECTION('ref_axis',(-2.22044604925031E-16,-1.22464679914735E-16,
1.));
#1032=DIRECTION('center_axis',(1.,-7.39557098644699E-32,2.22044604925031E-16));
#1033=DIRECTION('ref_axis',(-2.22044604925031E-16,-1.22464679914735E-16,
1.));
#1034=DIRECTION('',(0.,0.,1.));
#1035=DIRECTION('',(1.,0.,0.));
#1036=CARTESIAN_POINT('',(0.,0.,0.));
#1037=CARTESIAN_POINT('',(0.,0.,0.));
#1038=CARTESIAN_POINT('Origin',(-182.958095293111,13.2215365975226,15.2326033240524));
#1039=CARTESIAN_POINT('',(-180.958095293111,12.2560942415823,15.2595956494455));
#1040=CARTESIAN_POINT('',(-182.958095293111,12.8576560778779,15.6742391682275));
#1041=CARTESIAN_POINT('Origin',(-180.432365955057,16.2399418862771,10.1235506784723));
#1042=CARTESIAN_POINT('',(-182.958095293111,14.1756987390024,14.0745523153208));
#1043=CARTESIAN_POINT('',(-182.958095293111,15.2876633960389,12.7249789705243));
#1044=CARTESIAN_POINT('',(-180.958095293111,13.6340036571123,13.5872494943984));
#1045=CARTESIAN_POINT('Origin',(-182.552801711436,17.2399418862771,10.1235506784723));
#1046=CARTESIAN_POINT('',(-180.958095293111,12.6597299791817,14.7697095464797));
#1047=CARTESIAN_POINT('Origin',(-180.958095293111,12.3640767601863,11.23077209814));
#1048=CARTESIAN_POINT('',(-180.958095293111,10.0834148060413,12.208538522639));
#1049=CARTESIAN_POINT('Origin',(-180.958095293111,16.2399418862771,10.1235506784723));
#1050=CARTESIAN_POINT('',(-180.958095293111,12.5813739030213,11.9395199363023));
#1051=CARTESIAN_POINT('Origin',(-180.958095293111,17.2399418862771,10.1235506784723));
#1052=CARTESIAN_POINT('',(-180.958095293111,12.4420218540341,11.9545275043873));
#1053=CARTESIAN_POINT('Origin',(-182.958095293111,12.3640767601863,11.23077209814));
#1054=CARTESIAN_POINT('',(-182.958095293111,9.88682480285036,11.4975606217664));
#1055=CARTESIAN_POINT('Origin',(-184.842433232419,16.2399418862771,10.1235506784723));
#1056=CARTESIAN_POINT('',(-182.958095293111,12.3640767601863,11.23077209814));
#1057=CARTESIAN_POINT('Origin',(-184.548243810946,17.2399418862771,10.1235506784723));
#1058=CARTESIAN_POINT('',(-182.958095293111,14.8329953920953,10.9648810349358));
#1059=CARTESIAN_POINT('Origin',(-182.958095293111,17.2399418862771,10.1235506784723));
#1060=CARTESIAN_POINT('',(-182.958095293111,14.5751083655893,14.3542317474042));
#1061=CARTESIAN_POINT('Origin',(-182.958095293111,17.2399418862771,10.1235506784723));
#1062=CARTESIAN_POINT('',(-180.958095293111,15.2299210513362,14.7017398666889));
#1063=CARTESIAN_POINT('Origin',(-184.548243810946,17.2399418862771,10.1235506784723));
#1064=CARTESIAN_POINT('',(-180.958095293111,17.139363432624,15.1225389735837));
#1065=CARTESIAN_POINT('Origin',(-180.958095293111,17.2399418862771,10.1235506784723));
#1066=CARTESIAN_POINT('',(-182.958095293111,17.8669748275295,15.0840778370094));
#1067=CARTESIAN_POINT('Origin',(-182.552801711436,17.2399418862771,10.1235506784723));
#1068=CARTESIAN_POINT('',(-182.958095293111,18.3471633059448,14.9994158045632));
#1069=CARTESIAN_POINT('Origin',(-182.958095293111,17.2399418862771,10.1235506784723));
#1070=CARTESIAN_POINT('',(-180.958095293111,19.0559111441071,14.7821186617282));
#1071=CARTESIAN_POINT('Origin',(-184.548243810946,17.2399418862771,10.1235506784723));
#1072=CARTESIAN_POINT('',(-180.958095293111,20.7036407022032,13.7294889076371));
#1073=CARTESIAN_POINT('Origin',(-180.958095293111,17.2399418862771,10.1235506784723));
#1074=CARTESIAN_POINT('',(-182.958095293111,21.1909435231256,13.1877938257471));
#1075=CARTESIAN_POINT('Origin',(-182.552801711436,17.2399418862771,10.1235506784723));
#1076=CARTESIAN_POINT('',(-182.958095293111,21.470622955209,12.7883841991601));
#1077=CARTESIAN_POINT('Origin',(-182.958095293111,17.2399418862771,10.1235506784723));
#1078=CARTESIAN_POINT('',(-180.958095293111,21.8181310744937,12.1335715134132));
#1079=CARTESIAN_POINT('Origin',(-184.548243810946,17.2399418862771,10.1235506784723));
#1080=CARTESIAN_POINT('',(-180.958095293111,22.2389301813885,10.2241291321255));
#1081=CARTESIAN_POINT('Origin',(-180.958095293111,17.2399418862771,10.1235506784723));
#1082=CARTESIAN_POINT('',(-182.958095293111,22.2004690448142,9.49651773721996));
#1083=CARTESIAN_POINT('Origin',(-182.552801711436,17.2399418862771,10.1235506784723));
#1084=CARTESIAN_POINT('',(-182.958095293111,22.115807012368,9.0163292588046));
#1085=CARTESIAN_POINT('Origin',(-182.958095293111,17.2399418862771,10.1235506784723));
#1086=CARTESIAN_POINT('',(-180.958095293111,21.898509869533,8.30758142064238));
#1087=CARTESIAN_POINT('Origin',(-184.548243810946,17.2399418862771,10.1235506784723));
#1088=CARTESIAN_POINT('',(-180.958095293111,20.845880115442,6.65985186254627));
#1089=CARTESIAN_POINT('Origin',(-180.958095293111,17.2399418862771,10.1235506784723));
#1090=CARTESIAN_POINT('',(-182.958095293111,20.3041850335519,6.1725490416238));
#1091=CARTESIAN_POINT('Origin',(-182.552801711436,17.2399418862771,10.1235506784723));
#1092=CARTESIAN_POINT('',(-182.958095293111,19.9047754069649,5.89286960954042));
#1093=CARTESIAN_POINT('Origin',(-182.958095293111,17.2399418862771,10.1235506784723));
#1094=CARTESIAN_POINT('',(-180.958095293111,19.249962721218,5.5453614902557));
#1095=CARTESIAN_POINT('Origin',(-184.548243810946,17.2399418862771,10.1235506784723));
#1096=CARTESIAN_POINT('',(-180.958095293111,17.3405203399303,5.12456238336089));
#1097=CARTESIAN_POINT('Origin',(-180.958095293111,17.2399418862771,10.1235506784723));
#1098=CARTESIAN_POINT('',(-181.232886757013,17.2399418862771,5.12355067847228));
#1099=CARTESIAN_POINT('Origin',(-182.552801711436,17.2399418862771,10.1235506784723));
#1100=CARTESIAN_POINT('',(-168.958095293111,17.2399418862771,5.12355067847228));
#1101=CARTESIAN_POINT('',(-182.958095293111,17.2399418862771,5.12355067847228));
#1102=CARTESIAN_POINT('Origin',(-168.958095293111,17.2399418862771,10.1235506784723));
#1103=CARTESIAN_POINT('',(-182.958095293111,16.6129089450248,5.16302351993517));
#1104=CARTESIAN_POINT('Origin',(-182.552801711436,17.2399418862771,10.1235506784723));
#1105=CARTESIAN_POINT('',(-182.958095293111,16.1327204666094,5.24768555238144));
#1106=CARTESIAN_POINT('Origin',(-182.958095293111,17.2399418862771,10.1235506784723));
#1107=CARTESIAN_POINT('',(-180.958095293111,15.4239726284472,5.46498269521646));
#1108=CARTESIAN_POINT('Origin',(-184.548243810946,17.2399418862771,10.1235506784723));
#1109=CARTESIAN_POINT('',(-180.958095293111,13.7762430703511,6.51761244930747));
#1110=CARTESIAN_POINT('Origin',(-180.958095293111,17.2399418862771,10.1235506784723));
#1111=CARTESIAN_POINT('',(-182.958095293111,13.2889402494286,7.05930753119752));
#1112=CARTESIAN_POINT('Origin',(-182.552801711436,17.2399418862771,10.1235506784723));
#1113=CARTESIAN_POINT('',(-182.958095293111,13.0092608173452,7.45871715778446));
#1114=CARTESIAN_POINT('Origin',(-182.958095293111,17.2399418862771,10.1235506784723));
#1115=CARTESIAN_POINT('',(-180.958095293111,12.6617526980605,8.11352984353139));
#1116=CARTESIAN_POINT('Origin',(-184.548243810946,17.2399418862771,10.1235506784723));
#1117=CARTESIAN_POINT('',(-180.958095293111,12.2409535911657,10.0229722248192));
#1118=CARTESIAN_POINT('Origin',(-180.958095293111,17.2399418862771,10.1235506784723));
#1119=CARTESIAN_POINT('',(-182.958095293111,12.27941472774,10.7505836197246));
#1120=CARTESIAN_POINT('Origin',(-182.552801711436,17.2399418862771,10.1235506784723));
#1121=CARTESIAN_POINT('Origin',(-182.958095293111,17.2399418862771,10.1235506784723));
#1122=CARTESIAN_POINT('Origin',(-182.958095293111,17.2399418862771,10.1235506784723));
#1123=CARTESIAN_POINT('',(-182.958095293111,13.309414437273,15.9254476846792));
#1124=CARTESIAN_POINT('Origin',(-182.958095293111,16.2399418862771,10.1235506784723));
#1125=CARTESIAN_POINT('',(-182.958095293111,16.1328840985615,12.4204292667349));
#1126=CARTESIAN_POINT('Origin',(-182.958095293111,18.0111460281717,16.5776380788353));
#1127=CARTESIAN_POINT('',(-180.958095293111,17.2762286600849,16.5404120391712));
#1128=CARTESIAN_POINT('',(-182.958095293111,17.9923453764927,16.382870290657));
#1129=CARTESIAN_POINT('Origin',(-179.818035697508,16.2399418862771,10.1235506784723));
#1130=CARTESIAN_POINT('',(-182.958095293111,17.6989601131455,13.3435076237649));
#1131=CARTESIAN_POINT('',(-180.958095293111,17.2865734295366,16.6475800192889));
#1132=CARTESIAN_POINT('Origin',(-180.958095293111,14.5751083655893,14.3542317474042));
#1133=CARTESIAN_POINT('',(-180.958095293111,14.0019523876895,16.2261241523611));
#1134=CARTESIAN_POINT('Origin',(-180.958095293111,16.2399418862771,10.1235506784723));
#1135=CARTESIAN_POINT('',(-180.958095293111,15.1419962256872,14.810888598662));
#1136=CARTESIAN_POINT('Origin',(-182.958095293111,14.5751083655893,14.3542317474042));
#1137=CARTESIAN_POINT('Origin',(-186.687857779822,16.2399418862771,10.1235506784723));
#1138=CARTESIAN_POINT('Origin',(-182.958095293111,17.2399418862771,10.1235506784723));
#1139=CARTESIAN_POINT('',(-182.958095293111,18.4792230627887,16.2256503017594));
#1140=CARTESIAN_POINT('Origin',(-182.958095293111,16.2399418862771,10.1235506784723));
#1141=CARTESIAN_POINT('',(-182.958095293111,18.0812722427407,12.5304971726541));
#1142=CARTESIAN_POINT('Origin',(-182.958095293111,22.3489945318573,14.1419559672269));
#1143=CARTESIAN_POINT('',(-180.958095293111,21.2915727016379,14.2139083774147));
#1144=CARTESIAN_POINT('',(-182.958095293111,21.7180802751443,13.622121785713));
#1145=CARTESIAN_POINT('Origin',(-180.805694281001,16.2399418862771,10.1235506784723));
#1146=CARTESIAN_POINT('',(-182.958095293111,19.8413701783291,12.0758291687105));
#1147=CARTESIAN_POINT('',(-180.958095293111,21.8861007542845,14.7037625855678));
#1148=CARTESIAN_POINT('Origin',(-180.958095293111,18.3471633059448,14.9994158045632));
#1149=CARTESIAN_POINT('',(-180.958095293111,19.1785993499845,15.9213340748227));
#1150=CARTESIAN_POINT('Origin',(-180.958095293111,16.2399418862771,10.1235506784723));
#1151=CARTESIAN_POINT('',(-180.958095293111,19.0709187121921,14.9214707107153));
#1152=CARTESIAN_POINT('Origin',(-182.958095293111,18.3471633059448,14.9994158045632));
#1153=CARTESIAN_POINT('Origin',(-187.2799254825,16.2399418862771,10.1235506784723));
#1154=CARTESIAN_POINT('Origin',(-182.958095293111,17.2399418862771,10.1235506784723));
#1155=CARTESIAN_POINT('',(-182.958095293111,21.9705662986427,13.1911138553929));
#1156=CARTESIAN_POINT('Origin',(-182.958095293111,16.2399418862771,10.1235506784723));
#1157=CARTESIAN_POINT('',(-182.958095293111,19.5368204745397,11.230608466188));
#1158=CARTESIAN_POINT('Origin',(-182.958095293111,23.6940292866401,9.35234653657777));
#1159=CARTESIAN_POINT('',(-180.958095293111,22.7397319843107,10.1757874615392));
#1160=CARTESIAN_POINT('',(-182.958095293111,22.704724842452,9.44784265754098));
#1161=CARTESIAN_POINT('Origin',(-182.816784702321,16.2399418862771,10.1235506784723));
#1162=CARTESIAN_POINT('',(-182.958095293111,20.4598988315697,9.66453245160388));
#1163=CARTESIAN_POINT('',(-180.958095293111,23.7639712270937,10.0769191352128));
#1164=CARTESIAN_POINT('Origin',(-180.958095293111,21.470622955209,12.7883841991601));
#1165=CARTESIAN_POINT('',(-180.958095293111,22.285863715635,12.5103538193479));
#1166=CARTESIAN_POINT('Origin',(-180.958095293111,16.2399418862771,10.1235506784723));
#1167=CARTESIAN_POINT('',(-180.958095293111,21.9272798064669,12.2214963390622));
#1168=CARTESIAN_POINT('Origin',(-182.958095293111,21.470622955209,12.7883841991601));
#1169=CARTESIAN_POINT('Origin',(-186.271811110068,16.2399418862771,10.1235506784723));
#1170=CARTESIAN_POINT('Origin',(-182.958095293111,17.2399418862771,10.1235506784723));
#1171=CARTESIAN_POINT('',(-182.958095293111,22.6350265442134,8.96041172811952));
#1172=CARTESIAN_POINT('Origin',(-182.958095293111,16.2399418862771,10.1235506784723));
#1173=CARTESIAN_POINT('',(-182.958095293111,19.6468883804589,9.28222032200879));
#1174=CARTESIAN_POINT('Origin',(-182.958095293111,21.2583471750317,5.01449803289216));
#1175=CARTESIAN_POINT('',(-180.958095293111,21.326428046182,6.0766186868154));
#1176=CARTESIAN_POINT('',(-182.958095293111,20.8359427456595,5.52716339055192));
#1177=CARTESIAN_POINT('Origin',(-184.673237467816,16.2399418862771,10.1235506784723));
#1178=CARTESIAN_POINT('',(-182.958095293111,19.1922203765153,7.52212238642035));
#1179=CARTESIAN_POINT('',(-180.958095293111,21.8201537933726,5.47739181046492));
#1180=CARTESIAN_POINT('Origin',(-180.958095293111,22.115807012368,9.0163292588046));
#1181=CARTESIAN_POINT('',(-180.958095293111,22.4631020412596,8.24677746749583));
#1182=CARTESIAN_POINT('Origin',(-180.958095293111,16.2399418862771,10.1235506784723));
#1183=CARTESIAN_POINT('',(-180.958095293111,22.0378619185201,8.29257385255726));
#1184=CARTESIAN_POINT('Origin',(-182.958095293111,22.115807012368,9.0163292588046));
#1185=CARTESIAN_POINT('Origin',(-184.254054389473,16.2399418862771,10.1235506784723));
#1186=CARTESIAN_POINT('Origin',(-182.958095293111,17.2399418862771,10.1235506784723));
#1187=CARTESIAN_POINT('',(-182.958095293111,20.4713808082682,5.18949305320497));
#1188=CARTESIAN_POINT('Origin',(-182.958095293111,16.2399418862771,10.1235506784723));
#1189=CARTESIAN_POINT('',(-182.958095293111,18.3469996739928,7.82667209020972));
#1190=CARTESIAN_POINT('Origin',(-182.958095293111,16.4687377443826,3.6694632781093));
#1191=CARTESIAN_POINT('',(-180.958095293111,17.2025483450565,3.69522361729097));
#1192=CARTESIAN_POINT('',(-182.958095293111,16.4646810132519,3.62743704609127));
#1193=CARTESIAN_POINT('Origin',(-185.287567725364,16.2399418862771,10.1235506784723));
#1194=CARTESIAN_POINT('',(-182.958095293111,16.7809236594087,6.90359373317972));
#1195=CARTESIAN_POINT('',(-180.958095293111,17.1933103430176,3.59952133765568));
#1196=CARTESIAN_POINT('Origin',(-180.958095293111,19.9047754069649,5.89286960954042));
#1197=CARTESIAN_POINT('',(-180.958095293111,19.8929506672652,4.74716463894503));
#1198=CARTESIAN_POINT('Origin',(-180.958095293111,16.2399418862771,10.1235506784723));
#1199=CARTESIAN_POINT('',(-180.958095293111,19.337887546867,5.43621275828255));
#1200=CARTESIAN_POINT('Origin',(-182.958095293111,19.9047754069649,5.89286960954042));
#1201=CARTESIAN_POINT('Origin',(-182.40862984207,16.2399418862771,10.1235506784723));
#1202=CARTESIAN_POINT('Origin',(-182.958095293111,17.2399418862771,10.1235506784723));
#1203=CARTESIAN_POINT('',(-182.958095293111,16.2399418862771,3.62355067847229));
#1204=CARTESIAN_POINT('Origin',(-182.958095293111,16.2399418862771,10.1235506784723));
#1205=CARTESIAN_POINT('',(-182.958095293111,15.9584653500986,3.62964807991255));
#1206=CARTESIAN_POINT('Origin',(-182.958095293111,16.2399418862771,10.1235506784723));
#1207=CARTESIAN_POINT('',(-182.958095293111,16.3986115298136,7.71660418429054));
#1208=CARTESIAN_POINT('Origin',(-182.958095293111,12.130889240697,6.10514538971775));
#1209=CARTESIAN_POINT('',(-180.958095293111,12.0854663971241,5.12451743093064));
#1210=CARTESIAN_POINT('',(-182.958095293111,11.5481398459931,5.62499606451166));
#1211=CARTESIAN_POINT('Origin',(-184.299909141871,16.2399418862771,10.1235506784723));
#1212=CARTESIAN_POINT('',(-182.958095293111,14.6385135942251,8.17127218823409));
#1213=CARTESIAN_POINT('',(-180.958095293111,12.5937830182697,5.54333877137684));
#1214=CARTESIAN_POINT('Origin',(-180.958095293111,16.1327204666094,5.24768555238144));
#1215=CARTESIAN_POINT('',(-180.958095293111,15.2340912224519,3.70184806607405));
#1216=CARTESIAN_POINT('Origin',(-180.958095293111,16.2399418862771,10.1235506784723));
#1217=CARTESIAN_POINT('',(-180.958095293111,15.4089650603621,5.32563064622931));
#1218=CARTESIAN_POINT('Origin',(-182.958095293111,16.1327204666094,5.24768555238144));
#1219=CARTESIAN_POINT('Origin',(-181.816562139391,16.2399418862771,10.1235506784723));
#1220=CARTESIAN_POINT('Origin',(-182.958095293111,17.2399418862771,10.1235506784723));
#1221=CARTESIAN_POINT('',(-182.958095293111,11.208633766273,6.00822097095428));
#1222=CARTESIAN_POINT('Origin',(-182.958095293111,16.2399418862771,10.1235506784723));
#1223=CARTESIAN_POINT('',(-182.958095293111,14.9430632980145,9.01649289075664));
#1224=CARTESIAN_POINT('Origin',(-186.958095293111,16.2399418862771,10.1235506784723));
#1225=CARTESIAN_POINT('',(-168.958095293111,16.2399418862771,3.6235506784723));
#1226=CARTESIAN_POINT('Origin',(-168.958095293111,16.2399418862771,10.1235506784723));
#1227=CARTESIAN_POINT('',(-186.958095293111,16.2399418862771,3.62355067847229));
#1228=CARTESIAN_POINT('',(-182.958095293111,9.79796490905661,10.9901143662419));
#1229=CARTESIAN_POINT('Origin',(-182.958095293111,16.2399418862771,10.1235506784723));
#1230=CARTESIAN_POINT('',(-180.958095293111,9.74146473252021,10.264244253661));
#1231=CARTESIAN_POINT('Origin',(-182.288818720551,16.2399418862771,10.1235506784723));
#1232=CARTESIAN_POINT('',(-180.958095293111,10.7795608366939,6.59732907548819));
#1233=CARTESIAN_POINT('Origin',(-180.958095293111,16.2399418862771,10.1235506784723));
#1234=CARTESIAN_POINT('Origin',(-182.824676511823,16.2399418862771,10.1235506784723));
#1235=CARTESIAN_POINT('Origin',(-182.958095293111,10.7858544859141,10.8947548203668));
#1236=CARTESIAN_POINT('',(-182.958095293111,14.0199849409846,10.5825689053407));
#1237=CARTESIAN_POINT('',(-180.958095293111,10.7159125454605,10.1701822217318));
#1238=CARTESIAN_POINT('Origin',(-180.958095293111,13.0092608173452,7.45871715778446));
#1239=CARTESIAN_POINT('',(-180.958095293111,12.5526039660874,8.02560501788243));
#1240=CARTESIAN_POINT('Origin',(-182.958095293111,13.0092608173452,7.45871715778446));
#1241=CARTESIAN_POINT('Origin',(-182.958095293111,17.2399418862771,10.1235506784723));
#1242=CARTESIAN_POINT('Origin',(-168.958095293111,17.2399418862771,10.1235506784723));
#1243=CARTESIAN_POINT('',(0.,0.,0.));
#1244=UNCERTAINTY_MEASURE_WITH_UNIT(LENGTH_MEASURE(0.01),#1250,
'DISTANCE_ACCURACY_VALUE',
'Maximum model space distance between geometric entities at asserted c
onnectivities');
#1245=UNCERTAINTY_MEASURE_WITH_UNIT(LENGTH_MEASURE(0.01),#1250,
'DISTANCE_ACCURACY_VALUE',
'Maximum model space distance between geometric entities at asserted c
onnectivities');
#1246=UNCERTAINTY_MEASURE_WITH_UNIT(LENGTH_MEASURE(0.01),#1250,
'DISTANCE_ACCURACY_VALUE',
'Maximum model space distance between geometric entities at asserted c
onnectivities');
#1247=(
GEOMETRIC_REPRESENTATION_CONTEXT(3)
GLOBAL_UNCERTAINTY_ASSIGNED_CONTEXT((#1244))
GLOBAL_UNIT_ASSIGNED_CONTEXT((#1250,#1252,#1253))
REPRESENTATION_CONTEXT('','3D')
);
#1248=(
GEOMETRIC_REPRESENTATION_CONTEXT(3)
GLOBAL_UNCERTAINTY_ASSIGNED_CONTEXT((#1245))
GLOBAL_UNIT_ASSIGNED_CONTEXT((#1250,#1252,#1253))
REPRESENTATION_CONTEXT('','3D')
);
#1249=(
GEOMETRIC_REPRESENTATION_CONTEXT(3)
GLOBAL_UNCERTAINTY_ASSIGNED_CONTEXT((#1246))
GLOBAL_UNIT_ASSIGNED_CONTEXT((#1250,#1252,#1253))
REPRESENTATION_CONTEXT('','3D')
);
#1250=(
LENGTH_UNIT()
NAMED_UNIT(*)
SI_UNIT(.MILLI.,.METRE.)
);
#1251=(
LENGTH_UNIT()
NAMED_UNIT(*)
SI_UNIT($,.METRE.)
);
#1252=(
NAMED_UNIT(*)
PLANE_ANGLE_UNIT()
SI_UNIT($,.RADIAN.)
);
#1253=(
NAMED_UNIT(*)
SI_UNIT($,.STERADIAN.)
SOLID_ANGLE_UNIT()
);
#1254=SHAPE_DEFINITION_REPRESENTATION(#1256,#1259);
#1255=SHAPE_DEFINITION_REPRESENTATION(#1257,#1260);
#1256=PRODUCT_DEFINITION_SHAPE('',$,#1262);
#1257=PRODUCT_DEFINITION_SHAPE('',$,#1263);
#1258=PRODUCT_DEFINITION_SHAPE($,$,#14);
#1259=SHAPE_REPRESENTATION('',(#684,#789),#1247);
#1260=SHAPE_REPRESENTATION('',(#685),#1248);
#1261=PRODUCT_DEFINITION_CONTEXT('part definition',#1269,'design');
#1262=PRODUCT_DEFINITION('Drum','Drum v24',#1264,#1261);
#1263=PRODUCT_DEFINITION('Component2','Component2',#1265,#1261);
#1264=PRODUCT_DEFINITION_FORMATION('',$,#1271);
#1265=PRODUCT_DEFINITION_FORMATION('',$,#1272);
#1266=PRODUCT_RELATED_PRODUCT_CATEGORY('Drum v24','Drum v24',(#1271));
#1267=PRODUCT_RELATED_PRODUCT_CATEGORY('Component2','Component2',(#1272));
#1268=APPLICATION_PROTOCOL_DEFINITION('international standard',
'automotive_design',2009,#1269);
#1269=APPLICATION_CONTEXT(
'Core Data for Automotive Mechanical Design Process');
#1270=PRODUCT_CONTEXT('part definition',#1269,'mechanical');
#1271=PRODUCT('Drum','Drum v24',$,(#1270));
#1272=PRODUCT('Component2','Component2',$,(#1270));
#1273=PRESENTATION_STYLE_ASSIGNMENT((#1274));
#1274=SURFACE_STYLE_USAGE(.BOTH.,#1275);
#1275=SURFACE_SIDE_STYLE('',(#1276));
#1276=SURFACE_STYLE_FILL_AREA(#1277);
#1277=FILL_AREA_STYLE('Steel - Satin',(#1278));
#1278=FILL_AREA_STYLE_COLOUR('Steel - Satin',#1279);
#1279=COLOUR_RGB('Steel - Satin',0.627450980392157,0.627450980392157,0.627450980392157);
ENDSEC;
END-ISO-10303-21;
